%TF.GenerationSoftware,KiCad,Pcbnew,10.0.4*%
%TF.CreationDate,2026-07-30T08:42:38+01:00*%
%TF.ProjectId,tracking system,74726163-6b69-46e6-9720-73797374656d,rev?*%
%TF.SameCoordinates,Original*%
%TF.FileFunction,Legend,Top*%
%TF.FilePolarity,Positive*%
%FSLAX46Y46*%
G04 Gerber Fmt 4.6, Leading zero omitted, Abs format (unit mm)*
G04 Created by KiCad (PCBNEW 10.0.4) date 2026-07-30 08:42:38*
%MOMM*%
%LPD*%
G01*
G04 APERTURE LIST*
%ADD10C,0.150000*%
%ADD11C,0.120000*%
%ADD12C,0.000000*%
G04 APERTURE END LIST*
D10*
X163454819Y-96416666D02*
X162978628Y-96749999D01*
X163454819Y-96988094D02*
X162454819Y-96988094D01*
X162454819Y-96988094D02*
X162454819Y-96607142D01*
X162454819Y-96607142D02*
X162502438Y-96511904D01*
X162502438Y-96511904D02*
X162550057Y-96464285D01*
X162550057Y-96464285D02*
X162645295Y-96416666D01*
X162645295Y-96416666D02*
X162788152Y-96416666D01*
X162788152Y-96416666D02*
X162883390Y-96464285D01*
X162883390Y-96464285D02*
X162931009Y-96511904D01*
X162931009Y-96511904D02*
X162978628Y-96607142D01*
X162978628Y-96607142D02*
X162978628Y-96988094D01*
X162454819Y-96083332D02*
X162454819Y-95464285D01*
X162454819Y-95464285D02*
X162835771Y-95797618D01*
X162835771Y-95797618D02*
X162835771Y-95654761D01*
X162835771Y-95654761D02*
X162883390Y-95559523D01*
X162883390Y-95559523D02*
X162931009Y-95511904D01*
X162931009Y-95511904D02*
X163026247Y-95464285D01*
X163026247Y-95464285D02*
X163264342Y-95464285D01*
X163264342Y-95464285D02*
X163359580Y-95511904D01*
X163359580Y-95511904D02*
X163407200Y-95559523D01*
X163407200Y-95559523D02*
X163454819Y-95654761D01*
X163454819Y-95654761D02*
X163454819Y-95940475D01*
X163454819Y-95940475D02*
X163407200Y-96035713D01*
X163407200Y-96035713D02*
X163359580Y-96083332D01*
X133630593Y-107342028D02*
X133630593Y-107675361D01*
X134154403Y-107675361D02*
X133154403Y-107675361D01*
X133154403Y-107675361D02*
X133154403Y-107199171D01*
X133630593Y-106484885D02*
X133678212Y-106342028D01*
X133678212Y-106342028D02*
X133725831Y-106294409D01*
X133725831Y-106294409D02*
X133821069Y-106246790D01*
X133821069Y-106246790D02*
X133963926Y-106246790D01*
X133963926Y-106246790D02*
X134059164Y-106294409D01*
X134059164Y-106294409D02*
X134106784Y-106342028D01*
X134106784Y-106342028D02*
X134154403Y-106437266D01*
X134154403Y-106437266D02*
X134154403Y-106818218D01*
X134154403Y-106818218D02*
X133154403Y-106818218D01*
X133154403Y-106818218D02*
X133154403Y-106484885D01*
X133154403Y-106484885D02*
X133202022Y-106389647D01*
X133202022Y-106389647D02*
X133249641Y-106342028D01*
X133249641Y-106342028D02*
X133344879Y-106294409D01*
X133344879Y-106294409D02*
X133440117Y-106294409D01*
X133440117Y-106294409D02*
X133535355Y-106342028D01*
X133535355Y-106342028D02*
X133582974Y-106389647D01*
X133582974Y-106389647D02*
X133630593Y-106484885D01*
X133630593Y-106484885D02*
X133630593Y-106818218D01*
X134154403Y-105294409D02*
X134154403Y-105865837D01*
X134154403Y-105580123D02*
X133154403Y-105580123D01*
X133154403Y-105580123D02*
X133297260Y-105675361D01*
X133297260Y-105675361D02*
X133392498Y-105770599D01*
X133392498Y-105770599D02*
X133440117Y-105865837D01*
X146083333Y-108109580D02*
X146035714Y-108157200D01*
X146035714Y-108157200D02*
X145892857Y-108204819D01*
X145892857Y-108204819D02*
X145797619Y-108204819D01*
X145797619Y-108204819D02*
X145654762Y-108157200D01*
X145654762Y-108157200D02*
X145559524Y-108061961D01*
X145559524Y-108061961D02*
X145511905Y-107966723D01*
X145511905Y-107966723D02*
X145464286Y-107776247D01*
X145464286Y-107776247D02*
X145464286Y-107633390D01*
X145464286Y-107633390D02*
X145511905Y-107442914D01*
X145511905Y-107442914D02*
X145559524Y-107347676D01*
X145559524Y-107347676D02*
X145654762Y-107252438D01*
X145654762Y-107252438D02*
X145797619Y-107204819D01*
X145797619Y-107204819D02*
X145892857Y-107204819D01*
X145892857Y-107204819D02*
X146035714Y-107252438D01*
X146035714Y-107252438D02*
X146083333Y-107300057D01*
X146988095Y-107204819D02*
X146511905Y-107204819D01*
X146511905Y-107204819D02*
X146464286Y-107681009D01*
X146464286Y-107681009D02*
X146511905Y-107633390D01*
X146511905Y-107633390D02*
X146607143Y-107585771D01*
X146607143Y-107585771D02*
X146845238Y-107585771D01*
X146845238Y-107585771D02*
X146940476Y-107633390D01*
X146940476Y-107633390D02*
X146988095Y-107681009D01*
X146988095Y-107681009D02*
X147035714Y-107776247D01*
X147035714Y-107776247D02*
X147035714Y-108014342D01*
X147035714Y-108014342D02*
X146988095Y-108109580D01*
X146988095Y-108109580D02*
X146940476Y-108157200D01*
X146940476Y-108157200D02*
X146845238Y-108204819D01*
X146845238Y-108204819D02*
X146607143Y-108204819D01*
X146607143Y-108204819D02*
X146511905Y-108157200D01*
X146511905Y-108157200D02*
X146464286Y-108109580D01*
X134129164Y-103425361D02*
X134176784Y-103472980D01*
X134176784Y-103472980D02*
X134224403Y-103615837D01*
X134224403Y-103615837D02*
X134224403Y-103711075D01*
X134224403Y-103711075D02*
X134176784Y-103853932D01*
X134176784Y-103853932D02*
X134081545Y-103949170D01*
X134081545Y-103949170D02*
X133986307Y-103996789D01*
X133986307Y-103996789D02*
X133795831Y-104044408D01*
X133795831Y-104044408D02*
X133652974Y-104044408D01*
X133652974Y-104044408D02*
X133462498Y-103996789D01*
X133462498Y-103996789D02*
X133367260Y-103949170D01*
X133367260Y-103949170D02*
X133272022Y-103853932D01*
X133272022Y-103853932D02*
X133224403Y-103711075D01*
X133224403Y-103711075D02*
X133224403Y-103615837D01*
X133224403Y-103615837D02*
X133272022Y-103472980D01*
X133272022Y-103472980D02*
X133319641Y-103425361D01*
X133224403Y-102568218D02*
X133224403Y-102758694D01*
X133224403Y-102758694D02*
X133272022Y-102853932D01*
X133272022Y-102853932D02*
X133319641Y-102901551D01*
X133319641Y-102901551D02*
X133462498Y-102996789D01*
X133462498Y-102996789D02*
X133652974Y-103044408D01*
X133652974Y-103044408D02*
X134033926Y-103044408D01*
X134033926Y-103044408D02*
X134129164Y-102996789D01*
X134129164Y-102996789D02*
X134176784Y-102949170D01*
X134176784Y-102949170D02*
X134224403Y-102853932D01*
X134224403Y-102853932D02*
X134224403Y-102663456D01*
X134224403Y-102663456D02*
X134176784Y-102568218D01*
X134176784Y-102568218D02*
X134129164Y-102520599D01*
X134129164Y-102520599D02*
X134033926Y-102472980D01*
X134033926Y-102472980D02*
X133795831Y-102472980D01*
X133795831Y-102472980D02*
X133700593Y-102520599D01*
X133700593Y-102520599D02*
X133652974Y-102568218D01*
X133652974Y-102568218D02*
X133605355Y-102663456D01*
X133605355Y-102663456D02*
X133605355Y-102853932D01*
X133605355Y-102853932D02*
X133652974Y-102949170D01*
X133652974Y-102949170D02*
X133700593Y-102996789D01*
X133700593Y-102996789D02*
X133795831Y-103044408D01*
X136333333Y-110528275D02*
X136285714Y-110575895D01*
X136285714Y-110575895D02*
X136142857Y-110623514D01*
X136142857Y-110623514D02*
X136047619Y-110623514D01*
X136047619Y-110623514D02*
X135904762Y-110575895D01*
X135904762Y-110575895D02*
X135809524Y-110480656D01*
X135809524Y-110480656D02*
X135761905Y-110385418D01*
X135761905Y-110385418D02*
X135714286Y-110194942D01*
X135714286Y-110194942D02*
X135714286Y-110052085D01*
X135714286Y-110052085D02*
X135761905Y-109861609D01*
X135761905Y-109861609D02*
X135809524Y-109766371D01*
X135809524Y-109766371D02*
X135904762Y-109671133D01*
X135904762Y-109671133D02*
X136047619Y-109623514D01*
X136047619Y-109623514D02*
X136142857Y-109623514D01*
X136142857Y-109623514D02*
X136285714Y-109671133D01*
X136285714Y-109671133D02*
X136333333Y-109718752D01*
X136904762Y-110052085D02*
X136809524Y-110004466D01*
X136809524Y-110004466D02*
X136761905Y-109956847D01*
X136761905Y-109956847D02*
X136714286Y-109861609D01*
X136714286Y-109861609D02*
X136714286Y-109813990D01*
X136714286Y-109813990D02*
X136761905Y-109718752D01*
X136761905Y-109718752D02*
X136809524Y-109671133D01*
X136809524Y-109671133D02*
X136904762Y-109623514D01*
X136904762Y-109623514D02*
X137095238Y-109623514D01*
X137095238Y-109623514D02*
X137190476Y-109671133D01*
X137190476Y-109671133D02*
X137238095Y-109718752D01*
X137238095Y-109718752D02*
X137285714Y-109813990D01*
X137285714Y-109813990D02*
X137285714Y-109861609D01*
X137285714Y-109861609D02*
X137238095Y-109956847D01*
X137238095Y-109956847D02*
X137190476Y-110004466D01*
X137190476Y-110004466D02*
X137095238Y-110052085D01*
X137095238Y-110052085D02*
X136904762Y-110052085D01*
X136904762Y-110052085D02*
X136809524Y-110099704D01*
X136809524Y-110099704D02*
X136761905Y-110147323D01*
X136761905Y-110147323D02*
X136714286Y-110242561D01*
X136714286Y-110242561D02*
X136714286Y-110433037D01*
X136714286Y-110433037D02*
X136761905Y-110528275D01*
X136761905Y-110528275D02*
X136809524Y-110575895D01*
X136809524Y-110575895D02*
X136904762Y-110623514D01*
X136904762Y-110623514D02*
X137095238Y-110623514D01*
X137095238Y-110623514D02*
X137190476Y-110575895D01*
X137190476Y-110575895D02*
X137238095Y-110528275D01*
X137238095Y-110528275D02*
X137285714Y-110433037D01*
X137285714Y-110433037D02*
X137285714Y-110242561D01*
X137285714Y-110242561D02*
X137238095Y-110147323D01*
X137238095Y-110147323D02*
X137190476Y-110099704D01*
X137190476Y-110099704D02*
X137095238Y-110052085D01*
X153607142Y-112359580D02*
X153559523Y-112407200D01*
X153559523Y-112407200D02*
X153416666Y-112454819D01*
X153416666Y-112454819D02*
X153321428Y-112454819D01*
X153321428Y-112454819D02*
X153178571Y-112407200D01*
X153178571Y-112407200D02*
X153083333Y-112311961D01*
X153083333Y-112311961D02*
X153035714Y-112216723D01*
X153035714Y-112216723D02*
X152988095Y-112026247D01*
X152988095Y-112026247D02*
X152988095Y-111883390D01*
X152988095Y-111883390D02*
X153035714Y-111692914D01*
X153035714Y-111692914D02*
X153083333Y-111597676D01*
X153083333Y-111597676D02*
X153178571Y-111502438D01*
X153178571Y-111502438D02*
X153321428Y-111454819D01*
X153321428Y-111454819D02*
X153416666Y-111454819D01*
X153416666Y-111454819D02*
X153559523Y-111502438D01*
X153559523Y-111502438D02*
X153607142Y-111550057D01*
X154559523Y-112454819D02*
X153988095Y-112454819D01*
X154273809Y-112454819D02*
X154273809Y-111454819D01*
X154273809Y-111454819D02*
X154178571Y-111597676D01*
X154178571Y-111597676D02*
X154083333Y-111692914D01*
X154083333Y-111692914D02*
X153988095Y-111740533D01*
X155130952Y-111883390D02*
X155035714Y-111835771D01*
X155035714Y-111835771D02*
X154988095Y-111788152D01*
X154988095Y-111788152D02*
X154940476Y-111692914D01*
X154940476Y-111692914D02*
X154940476Y-111645295D01*
X154940476Y-111645295D02*
X154988095Y-111550057D01*
X154988095Y-111550057D02*
X155035714Y-111502438D01*
X155035714Y-111502438D02*
X155130952Y-111454819D01*
X155130952Y-111454819D02*
X155321428Y-111454819D01*
X155321428Y-111454819D02*
X155416666Y-111502438D01*
X155416666Y-111502438D02*
X155464285Y-111550057D01*
X155464285Y-111550057D02*
X155511904Y-111645295D01*
X155511904Y-111645295D02*
X155511904Y-111692914D01*
X155511904Y-111692914D02*
X155464285Y-111788152D01*
X155464285Y-111788152D02*
X155416666Y-111835771D01*
X155416666Y-111835771D02*
X155321428Y-111883390D01*
X155321428Y-111883390D02*
X155130952Y-111883390D01*
X155130952Y-111883390D02*
X155035714Y-111931009D01*
X155035714Y-111931009D02*
X154988095Y-111978628D01*
X154988095Y-111978628D02*
X154940476Y-112073866D01*
X154940476Y-112073866D02*
X154940476Y-112264342D01*
X154940476Y-112264342D02*
X154988095Y-112359580D01*
X154988095Y-112359580D02*
X155035714Y-112407200D01*
X155035714Y-112407200D02*
X155130952Y-112454819D01*
X155130952Y-112454819D02*
X155321428Y-112454819D01*
X155321428Y-112454819D02*
X155416666Y-112407200D01*
X155416666Y-112407200D02*
X155464285Y-112359580D01*
X155464285Y-112359580D02*
X155511904Y-112264342D01*
X155511904Y-112264342D02*
X155511904Y-112073866D01*
X155511904Y-112073866D02*
X155464285Y-111978628D01*
X155464285Y-111978628D02*
X155416666Y-111931009D01*
X155416666Y-111931009D02*
X155321428Y-111883390D01*
X116523809Y-91228628D02*
X116523809Y-91704819D01*
X116190476Y-90704819D02*
X116523809Y-91228628D01*
X116523809Y-91228628D02*
X116857142Y-90704819D01*
X117714285Y-91704819D02*
X117142857Y-91704819D01*
X117428571Y-91704819D02*
X117428571Y-90704819D01*
X117428571Y-90704819D02*
X117333333Y-90847676D01*
X117333333Y-90847676D02*
X117238095Y-90942914D01*
X117238095Y-90942914D02*
X117142857Y-90990533D01*
X163454819Y-102666666D02*
X162978628Y-102999999D01*
X163454819Y-103238094D02*
X162454819Y-103238094D01*
X162454819Y-103238094D02*
X162454819Y-102857142D01*
X162454819Y-102857142D02*
X162502438Y-102761904D01*
X162502438Y-102761904D02*
X162550057Y-102714285D01*
X162550057Y-102714285D02*
X162645295Y-102666666D01*
X162645295Y-102666666D02*
X162788152Y-102666666D01*
X162788152Y-102666666D02*
X162883390Y-102714285D01*
X162883390Y-102714285D02*
X162931009Y-102761904D01*
X162931009Y-102761904D02*
X162978628Y-102857142D01*
X162978628Y-102857142D02*
X162978628Y-103238094D01*
X162788152Y-101809523D02*
X163454819Y-101809523D01*
X162407200Y-102047618D02*
X163121485Y-102285713D01*
X163121485Y-102285713D02*
X163121485Y-101666666D01*
X132359580Y-89642857D02*
X132407200Y-89690476D01*
X132407200Y-89690476D02*
X132454819Y-89833333D01*
X132454819Y-89833333D02*
X132454819Y-89928571D01*
X132454819Y-89928571D02*
X132407200Y-90071428D01*
X132407200Y-90071428D02*
X132311961Y-90166666D01*
X132311961Y-90166666D02*
X132216723Y-90214285D01*
X132216723Y-90214285D02*
X132026247Y-90261904D01*
X132026247Y-90261904D02*
X131883390Y-90261904D01*
X131883390Y-90261904D02*
X131692914Y-90214285D01*
X131692914Y-90214285D02*
X131597676Y-90166666D01*
X131597676Y-90166666D02*
X131502438Y-90071428D01*
X131502438Y-90071428D02*
X131454819Y-89928571D01*
X131454819Y-89928571D02*
X131454819Y-89833333D01*
X131454819Y-89833333D02*
X131502438Y-89690476D01*
X131502438Y-89690476D02*
X131550057Y-89642857D01*
X132454819Y-88690476D02*
X132454819Y-89261904D01*
X132454819Y-88976190D02*
X131454819Y-88976190D01*
X131454819Y-88976190D02*
X131597676Y-89071428D01*
X131597676Y-89071428D02*
X131692914Y-89166666D01*
X131692914Y-89166666D02*
X131740533Y-89261904D01*
X131454819Y-88071428D02*
X131454819Y-87976190D01*
X131454819Y-87976190D02*
X131502438Y-87880952D01*
X131502438Y-87880952D02*
X131550057Y-87833333D01*
X131550057Y-87833333D02*
X131645295Y-87785714D01*
X131645295Y-87785714D02*
X131835771Y-87738095D01*
X131835771Y-87738095D02*
X132073866Y-87738095D01*
X132073866Y-87738095D02*
X132264342Y-87785714D01*
X132264342Y-87785714D02*
X132359580Y-87833333D01*
X132359580Y-87833333D02*
X132407200Y-87880952D01*
X132407200Y-87880952D02*
X132454819Y-87976190D01*
X132454819Y-87976190D02*
X132454819Y-88071428D01*
X132454819Y-88071428D02*
X132407200Y-88166666D01*
X132407200Y-88166666D02*
X132359580Y-88214285D01*
X132359580Y-88214285D02*
X132264342Y-88261904D01*
X132264342Y-88261904D02*
X132073866Y-88309523D01*
X132073866Y-88309523D02*
X131835771Y-88309523D01*
X131835771Y-88309523D02*
X131645295Y-88261904D01*
X131645295Y-88261904D02*
X131550057Y-88214285D01*
X131550057Y-88214285D02*
X131502438Y-88166666D01*
X131502438Y-88166666D02*
X131454819Y-88071428D01*
X150204819Y-104916666D02*
X149728628Y-105249999D01*
X150204819Y-105488094D02*
X149204819Y-105488094D01*
X149204819Y-105488094D02*
X149204819Y-105107142D01*
X149204819Y-105107142D02*
X149252438Y-105011904D01*
X149252438Y-105011904D02*
X149300057Y-104964285D01*
X149300057Y-104964285D02*
X149395295Y-104916666D01*
X149395295Y-104916666D02*
X149538152Y-104916666D01*
X149538152Y-104916666D02*
X149633390Y-104964285D01*
X149633390Y-104964285D02*
X149681009Y-105011904D01*
X149681009Y-105011904D02*
X149728628Y-105107142D01*
X149728628Y-105107142D02*
X149728628Y-105488094D01*
X149204819Y-104059523D02*
X149204819Y-104249999D01*
X149204819Y-104249999D02*
X149252438Y-104345237D01*
X149252438Y-104345237D02*
X149300057Y-104392856D01*
X149300057Y-104392856D02*
X149442914Y-104488094D01*
X149442914Y-104488094D02*
X149633390Y-104535713D01*
X149633390Y-104535713D02*
X150014342Y-104535713D01*
X150014342Y-104535713D02*
X150109580Y-104488094D01*
X150109580Y-104488094D02*
X150157200Y-104440475D01*
X150157200Y-104440475D02*
X150204819Y-104345237D01*
X150204819Y-104345237D02*
X150204819Y-104154761D01*
X150204819Y-104154761D02*
X150157200Y-104059523D01*
X150157200Y-104059523D02*
X150109580Y-104011904D01*
X150109580Y-104011904D02*
X150014342Y-103964285D01*
X150014342Y-103964285D02*
X149776247Y-103964285D01*
X149776247Y-103964285D02*
X149681009Y-104011904D01*
X149681009Y-104011904D02*
X149633390Y-104059523D01*
X149633390Y-104059523D02*
X149585771Y-104154761D01*
X149585771Y-104154761D02*
X149585771Y-104345237D01*
X149585771Y-104345237D02*
X149633390Y-104440475D01*
X149633390Y-104440475D02*
X149681009Y-104488094D01*
X149681009Y-104488094D02*
X149776247Y-104535713D01*
X149607142Y-108609580D02*
X149559523Y-108657200D01*
X149559523Y-108657200D02*
X149416666Y-108704819D01*
X149416666Y-108704819D02*
X149321428Y-108704819D01*
X149321428Y-108704819D02*
X149178571Y-108657200D01*
X149178571Y-108657200D02*
X149083333Y-108561961D01*
X149083333Y-108561961D02*
X149035714Y-108466723D01*
X149035714Y-108466723D02*
X148988095Y-108276247D01*
X148988095Y-108276247D02*
X148988095Y-108133390D01*
X148988095Y-108133390D02*
X149035714Y-107942914D01*
X149035714Y-107942914D02*
X149083333Y-107847676D01*
X149083333Y-107847676D02*
X149178571Y-107752438D01*
X149178571Y-107752438D02*
X149321428Y-107704819D01*
X149321428Y-107704819D02*
X149416666Y-107704819D01*
X149416666Y-107704819D02*
X149559523Y-107752438D01*
X149559523Y-107752438D02*
X149607142Y-107800057D01*
X150559523Y-108704819D02*
X149988095Y-108704819D01*
X150273809Y-108704819D02*
X150273809Y-107704819D01*
X150273809Y-107704819D02*
X150178571Y-107847676D01*
X150178571Y-107847676D02*
X150083333Y-107942914D01*
X150083333Y-107942914D02*
X149988095Y-107990533D01*
X151416666Y-107704819D02*
X151226190Y-107704819D01*
X151226190Y-107704819D02*
X151130952Y-107752438D01*
X151130952Y-107752438D02*
X151083333Y-107800057D01*
X151083333Y-107800057D02*
X150988095Y-107942914D01*
X150988095Y-107942914D02*
X150940476Y-108133390D01*
X150940476Y-108133390D02*
X150940476Y-108514342D01*
X150940476Y-108514342D02*
X150988095Y-108609580D01*
X150988095Y-108609580D02*
X151035714Y-108657200D01*
X151035714Y-108657200D02*
X151130952Y-108704819D01*
X151130952Y-108704819D02*
X151321428Y-108704819D01*
X151321428Y-108704819D02*
X151416666Y-108657200D01*
X151416666Y-108657200D02*
X151464285Y-108609580D01*
X151464285Y-108609580D02*
X151511904Y-108514342D01*
X151511904Y-108514342D02*
X151511904Y-108276247D01*
X151511904Y-108276247D02*
X151464285Y-108181009D01*
X151464285Y-108181009D02*
X151416666Y-108133390D01*
X151416666Y-108133390D02*
X151321428Y-108085771D01*
X151321428Y-108085771D02*
X151130952Y-108085771D01*
X151130952Y-108085771D02*
X151035714Y-108133390D01*
X151035714Y-108133390D02*
X150988095Y-108181009D01*
X150988095Y-108181009D02*
X150940476Y-108276247D01*
X154761905Y-96204819D02*
X154761905Y-95204819D01*
X154761905Y-95204819D02*
X155000000Y-95204819D01*
X155000000Y-95204819D02*
X155142857Y-95252438D01*
X155142857Y-95252438D02*
X155238095Y-95347676D01*
X155238095Y-95347676D02*
X155285714Y-95442914D01*
X155285714Y-95442914D02*
X155333333Y-95633390D01*
X155333333Y-95633390D02*
X155333333Y-95776247D01*
X155333333Y-95776247D02*
X155285714Y-95966723D01*
X155285714Y-95966723D02*
X155238095Y-96061961D01*
X155238095Y-96061961D02*
X155142857Y-96157200D01*
X155142857Y-96157200D02*
X155000000Y-96204819D01*
X155000000Y-96204819D02*
X154761905Y-96204819D01*
X156285714Y-96204819D02*
X155714286Y-96204819D01*
X156000000Y-96204819D02*
X156000000Y-95204819D01*
X156000000Y-95204819D02*
X155904762Y-95347676D01*
X155904762Y-95347676D02*
X155809524Y-95442914D01*
X155809524Y-95442914D02*
X155714286Y-95490533D01*
X133353749Y-90368275D02*
X133306130Y-90415895D01*
X133306130Y-90415895D02*
X133163273Y-90463514D01*
X133163273Y-90463514D02*
X133068035Y-90463514D01*
X133068035Y-90463514D02*
X132925178Y-90415895D01*
X132925178Y-90415895D02*
X132829940Y-90320656D01*
X132829940Y-90320656D02*
X132782321Y-90225418D01*
X132782321Y-90225418D02*
X132734702Y-90034942D01*
X132734702Y-90034942D02*
X132734702Y-89892085D01*
X132734702Y-89892085D02*
X132782321Y-89701609D01*
X132782321Y-89701609D02*
X132829940Y-89606371D01*
X132829940Y-89606371D02*
X132925178Y-89511133D01*
X132925178Y-89511133D02*
X133068035Y-89463514D01*
X133068035Y-89463514D02*
X133163273Y-89463514D01*
X133163273Y-89463514D02*
X133306130Y-89511133D01*
X133306130Y-89511133D02*
X133353749Y-89558752D01*
X133687083Y-89463514D02*
X134306130Y-89463514D01*
X134306130Y-89463514D02*
X133972797Y-89844466D01*
X133972797Y-89844466D02*
X134115654Y-89844466D01*
X134115654Y-89844466D02*
X134210892Y-89892085D01*
X134210892Y-89892085D02*
X134258511Y-89939704D01*
X134258511Y-89939704D02*
X134306130Y-90034942D01*
X134306130Y-90034942D02*
X134306130Y-90273037D01*
X134306130Y-90273037D02*
X134258511Y-90368275D01*
X134258511Y-90368275D02*
X134210892Y-90415895D01*
X134210892Y-90415895D02*
X134115654Y-90463514D01*
X134115654Y-90463514D02*
X133829940Y-90463514D01*
X133829940Y-90463514D02*
X133734702Y-90415895D01*
X133734702Y-90415895D02*
X133687083Y-90368275D01*
X146102917Y-106368275D02*
X146055298Y-106415895D01*
X146055298Y-106415895D02*
X145912441Y-106463514D01*
X145912441Y-106463514D02*
X145817203Y-106463514D01*
X145817203Y-106463514D02*
X145674346Y-106415895D01*
X145674346Y-106415895D02*
X145579108Y-106320656D01*
X145579108Y-106320656D02*
X145531489Y-106225418D01*
X145531489Y-106225418D02*
X145483870Y-106034942D01*
X145483870Y-106034942D02*
X145483870Y-105892085D01*
X145483870Y-105892085D02*
X145531489Y-105701609D01*
X145531489Y-105701609D02*
X145579108Y-105606371D01*
X145579108Y-105606371D02*
X145674346Y-105511133D01*
X145674346Y-105511133D02*
X145817203Y-105463514D01*
X145817203Y-105463514D02*
X145912441Y-105463514D01*
X145912441Y-105463514D02*
X146055298Y-105511133D01*
X146055298Y-105511133D02*
X146102917Y-105558752D01*
X146960060Y-105796847D02*
X146960060Y-106463514D01*
X146721965Y-105415895D02*
X146483870Y-106130180D01*
X146483870Y-106130180D02*
X147102917Y-106130180D01*
X125534819Y-84833333D02*
X126249104Y-84833333D01*
X126249104Y-84833333D02*
X126391961Y-84880952D01*
X126391961Y-84880952D02*
X126487200Y-84976190D01*
X126487200Y-84976190D02*
X126534819Y-85119047D01*
X126534819Y-85119047D02*
X126534819Y-85214285D01*
X125534819Y-84452380D02*
X125534819Y-83785714D01*
X125534819Y-83785714D02*
X126534819Y-84214285D01*
X136109580Y-104916666D02*
X136157200Y-104964285D01*
X136157200Y-104964285D02*
X136204819Y-105107142D01*
X136204819Y-105107142D02*
X136204819Y-105202380D01*
X136204819Y-105202380D02*
X136157200Y-105345237D01*
X136157200Y-105345237D02*
X136061961Y-105440475D01*
X136061961Y-105440475D02*
X135966723Y-105488094D01*
X135966723Y-105488094D02*
X135776247Y-105535713D01*
X135776247Y-105535713D02*
X135633390Y-105535713D01*
X135633390Y-105535713D02*
X135442914Y-105488094D01*
X135442914Y-105488094D02*
X135347676Y-105440475D01*
X135347676Y-105440475D02*
X135252438Y-105345237D01*
X135252438Y-105345237D02*
X135204819Y-105202380D01*
X135204819Y-105202380D02*
X135204819Y-105107142D01*
X135204819Y-105107142D02*
X135252438Y-104964285D01*
X135252438Y-104964285D02*
X135300057Y-104916666D01*
X135300057Y-104535713D02*
X135252438Y-104488094D01*
X135252438Y-104488094D02*
X135204819Y-104392856D01*
X135204819Y-104392856D02*
X135204819Y-104154761D01*
X135204819Y-104154761D02*
X135252438Y-104059523D01*
X135252438Y-104059523D02*
X135300057Y-104011904D01*
X135300057Y-104011904D02*
X135395295Y-103964285D01*
X135395295Y-103964285D02*
X135490533Y-103964285D01*
X135490533Y-103964285D02*
X135633390Y-104011904D01*
X135633390Y-104011904D02*
X136204819Y-104583332D01*
X136204819Y-104583332D02*
X136204819Y-103964285D01*
X121859580Y-104142857D02*
X121907200Y-104190476D01*
X121907200Y-104190476D02*
X121954819Y-104333333D01*
X121954819Y-104333333D02*
X121954819Y-104428571D01*
X121954819Y-104428571D02*
X121907200Y-104571428D01*
X121907200Y-104571428D02*
X121811961Y-104666666D01*
X121811961Y-104666666D02*
X121716723Y-104714285D01*
X121716723Y-104714285D02*
X121526247Y-104761904D01*
X121526247Y-104761904D02*
X121383390Y-104761904D01*
X121383390Y-104761904D02*
X121192914Y-104714285D01*
X121192914Y-104714285D02*
X121097676Y-104666666D01*
X121097676Y-104666666D02*
X121002438Y-104571428D01*
X121002438Y-104571428D02*
X120954819Y-104428571D01*
X120954819Y-104428571D02*
X120954819Y-104333333D01*
X120954819Y-104333333D02*
X121002438Y-104190476D01*
X121002438Y-104190476D02*
X121050057Y-104142857D01*
X121954819Y-103190476D02*
X121954819Y-103761904D01*
X121954819Y-103476190D02*
X120954819Y-103476190D01*
X120954819Y-103476190D02*
X121097676Y-103571428D01*
X121097676Y-103571428D02*
X121192914Y-103666666D01*
X121192914Y-103666666D02*
X121240533Y-103761904D01*
X121050057Y-102809523D02*
X121002438Y-102761904D01*
X121002438Y-102761904D02*
X120954819Y-102666666D01*
X120954819Y-102666666D02*
X120954819Y-102428571D01*
X120954819Y-102428571D02*
X121002438Y-102333333D01*
X121002438Y-102333333D02*
X121050057Y-102285714D01*
X121050057Y-102285714D02*
X121145295Y-102238095D01*
X121145295Y-102238095D02*
X121240533Y-102238095D01*
X121240533Y-102238095D02*
X121383390Y-102285714D01*
X121383390Y-102285714D02*
X121954819Y-102857142D01*
X121954819Y-102857142D02*
X121954819Y-102238095D01*
X123954819Y-101166666D02*
X123478628Y-101499999D01*
X123954819Y-101738094D02*
X122954819Y-101738094D01*
X122954819Y-101738094D02*
X122954819Y-101357142D01*
X122954819Y-101357142D02*
X123002438Y-101261904D01*
X123002438Y-101261904D02*
X123050057Y-101214285D01*
X123050057Y-101214285D02*
X123145295Y-101166666D01*
X123145295Y-101166666D02*
X123288152Y-101166666D01*
X123288152Y-101166666D02*
X123383390Y-101214285D01*
X123383390Y-101214285D02*
X123431009Y-101261904D01*
X123431009Y-101261904D02*
X123478628Y-101357142D01*
X123478628Y-101357142D02*
X123478628Y-101738094D01*
X123954819Y-100214285D02*
X123954819Y-100785713D01*
X123954819Y-100499999D02*
X122954819Y-100499999D01*
X122954819Y-100499999D02*
X123097676Y-100595237D01*
X123097676Y-100595237D02*
X123192914Y-100690475D01*
X123192914Y-100690475D02*
X123240533Y-100785713D01*
X122357142Y-96859580D02*
X122309523Y-96907200D01*
X122309523Y-96907200D02*
X122166666Y-96954819D01*
X122166666Y-96954819D02*
X122071428Y-96954819D01*
X122071428Y-96954819D02*
X121928571Y-96907200D01*
X121928571Y-96907200D02*
X121833333Y-96811961D01*
X121833333Y-96811961D02*
X121785714Y-96716723D01*
X121785714Y-96716723D02*
X121738095Y-96526247D01*
X121738095Y-96526247D02*
X121738095Y-96383390D01*
X121738095Y-96383390D02*
X121785714Y-96192914D01*
X121785714Y-96192914D02*
X121833333Y-96097676D01*
X121833333Y-96097676D02*
X121928571Y-96002438D01*
X121928571Y-96002438D02*
X122071428Y-95954819D01*
X122071428Y-95954819D02*
X122166666Y-95954819D01*
X122166666Y-95954819D02*
X122309523Y-96002438D01*
X122309523Y-96002438D02*
X122357142Y-96050057D01*
X123309523Y-96954819D02*
X122738095Y-96954819D01*
X123023809Y-96954819D02*
X123023809Y-95954819D01*
X123023809Y-95954819D02*
X122928571Y-96097676D01*
X122928571Y-96097676D02*
X122833333Y-96192914D01*
X122833333Y-96192914D02*
X122738095Y-96240533D01*
X124214285Y-95954819D02*
X123738095Y-95954819D01*
X123738095Y-95954819D02*
X123690476Y-96431009D01*
X123690476Y-96431009D02*
X123738095Y-96383390D01*
X123738095Y-96383390D02*
X123833333Y-96335771D01*
X123833333Y-96335771D02*
X124071428Y-96335771D01*
X124071428Y-96335771D02*
X124166666Y-96383390D01*
X124166666Y-96383390D02*
X124214285Y-96431009D01*
X124214285Y-96431009D02*
X124261904Y-96526247D01*
X124261904Y-96526247D02*
X124261904Y-96764342D01*
X124261904Y-96764342D02*
X124214285Y-96859580D01*
X124214285Y-96859580D02*
X124166666Y-96907200D01*
X124166666Y-96907200D02*
X124071428Y-96954819D01*
X124071428Y-96954819D02*
X123833333Y-96954819D01*
X123833333Y-96954819D02*
X123738095Y-96907200D01*
X123738095Y-96907200D02*
X123690476Y-96859580D01*
X131359580Y-99166666D02*
X131407200Y-99214285D01*
X131407200Y-99214285D02*
X131454819Y-99357142D01*
X131454819Y-99357142D02*
X131454819Y-99452380D01*
X131454819Y-99452380D02*
X131407200Y-99595237D01*
X131407200Y-99595237D02*
X131311961Y-99690475D01*
X131311961Y-99690475D02*
X131216723Y-99738094D01*
X131216723Y-99738094D02*
X131026247Y-99785713D01*
X131026247Y-99785713D02*
X130883390Y-99785713D01*
X130883390Y-99785713D02*
X130692914Y-99738094D01*
X130692914Y-99738094D02*
X130597676Y-99690475D01*
X130597676Y-99690475D02*
X130502438Y-99595237D01*
X130502438Y-99595237D02*
X130454819Y-99452380D01*
X130454819Y-99452380D02*
X130454819Y-99357142D01*
X130454819Y-99357142D02*
X130502438Y-99214285D01*
X130502438Y-99214285D02*
X130550057Y-99166666D01*
X131454819Y-98690475D02*
X131454819Y-98499999D01*
X131454819Y-98499999D02*
X131407200Y-98404761D01*
X131407200Y-98404761D02*
X131359580Y-98357142D01*
X131359580Y-98357142D02*
X131216723Y-98261904D01*
X131216723Y-98261904D02*
X131026247Y-98214285D01*
X131026247Y-98214285D02*
X130645295Y-98214285D01*
X130645295Y-98214285D02*
X130550057Y-98261904D01*
X130550057Y-98261904D02*
X130502438Y-98309523D01*
X130502438Y-98309523D02*
X130454819Y-98404761D01*
X130454819Y-98404761D02*
X130454819Y-98595237D01*
X130454819Y-98595237D02*
X130502438Y-98690475D01*
X130502438Y-98690475D02*
X130550057Y-98738094D01*
X130550057Y-98738094D02*
X130645295Y-98785713D01*
X130645295Y-98785713D02*
X130883390Y-98785713D01*
X130883390Y-98785713D02*
X130978628Y-98738094D01*
X130978628Y-98738094D02*
X131026247Y-98690475D01*
X131026247Y-98690475D02*
X131073866Y-98595237D01*
X131073866Y-98595237D02*
X131073866Y-98404761D01*
X131073866Y-98404761D02*
X131026247Y-98309523D01*
X131026247Y-98309523D02*
X130978628Y-98261904D01*
X130978628Y-98261904D02*
X130883390Y-98214285D01*
X121107142Y-90609580D02*
X121059523Y-90657200D01*
X121059523Y-90657200D02*
X120916666Y-90704819D01*
X120916666Y-90704819D02*
X120821428Y-90704819D01*
X120821428Y-90704819D02*
X120678571Y-90657200D01*
X120678571Y-90657200D02*
X120583333Y-90561961D01*
X120583333Y-90561961D02*
X120535714Y-90466723D01*
X120535714Y-90466723D02*
X120488095Y-90276247D01*
X120488095Y-90276247D02*
X120488095Y-90133390D01*
X120488095Y-90133390D02*
X120535714Y-89942914D01*
X120535714Y-89942914D02*
X120583333Y-89847676D01*
X120583333Y-89847676D02*
X120678571Y-89752438D01*
X120678571Y-89752438D02*
X120821428Y-89704819D01*
X120821428Y-89704819D02*
X120916666Y-89704819D01*
X120916666Y-89704819D02*
X121059523Y-89752438D01*
X121059523Y-89752438D02*
X121107142Y-89800057D01*
X122059523Y-90704819D02*
X121488095Y-90704819D01*
X121773809Y-90704819D02*
X121773809Y-89704819D01*
X121773809Y-89704819D02*
X121678571Y-89847676D01*
X121678571Y-89847676D02*
X121583333Y-89942914D01*
X121583333Y-89942914D02*
X121488095Y-89990533D01*
X122916666Y-90038152D02*
X122916666Y-90704819D01*
X122678571Y-89657200D02*
X122440476Y-90371485D01*
X122440476Y-90371485D02*
X123059523Y-90371485D01*
X154857142Y-108519580D02*
X154809523Y-108567200D01*
X154809523Y-108567200D02*
X154666666Y-108614819D01*
X154666666Y-108614819D02*
X154571428Y-108614819D01*
X154571428Y-108614819D02*
X154428571Y-108567200D01*
X154428571Y-108567200D02*
X154333333Y-108471961D01*
X154333333Y-108471961D02*
X154285714Y-108376723D01*
X154285714Y-108376723D02*
X154238095Y-108186247D01*
X154238095Y-108186247D02*
X154238095Y-108043390D01*
X154238095Y-108043390D02*
X154285714Y-107852914D01*
X154285714Y-107852914D02*
X154333333Y-107757676D01*
X154333333Y-107757676D02*
X154428571Y-107662438D01*
X154428571Y-107662438D02*
X154571428Y-107614819D01*
X154571428Y-107614819D02*
X154666666Y-107614819D01*
X154666666Y-107614819D02*
X154809523Y-107662438D01*
X154809523Y-107662438D02*
X154857142Y-107710057D01*
X155809523Y-108614819D02*
X155238095Y-108614819D01*
X155523809Y-108614819D02*
X155523809Y-107614819D01*
X155523809Y-107614819D02*
X155428571Y-107757676D01*
X155428571Y-107757676D02*
X155333333Y-107852914D01*
X155333333Y-107852914D02*
X155238095Y-107900533D01*
X156142857Y-107614819D02*
X156809523Y-107614819D01*
X156809523Y-107614819D02*
X156380952Y-108614819D01*
X161607142Y-112359580D02*
X161559523Y-112407200D01*
X161559523Y-112407200D02*
X161416666Y-112454819D01*
X161416666Y-112454819D02*
X161321428Y-112454819D01*
X161321428Y-112454819D02*
X161178571Y-112407200D01*
X161178571Y-112407200D02*
X161083333Y-112311961D01*
X161083333Y-112311961D02*
X161035714Y-112216723D01*
X161035714Y-112216723D02*
X160988095Y-112026247D01*
X160988095Y-112026247D02*
X160988095Y-111883390D01*
X160988095Y-111883390D02*
X161035714Y-111692914D01*
X161035714Y-111692914D02*
X161083333Y-111597676D01*
X161083333Y-111597676D02*
X161178571Y-111502438D01*
X161178571Y-111502438D02*
X161321428Y-111454819D01*
X161321428Y-111454819D02*
X161416666Y-111454819D01*
X161416666Y-111454819D02*
X161559523Y-111502438D01*
X161559523Y-111502438D02*
X161607142Y-111550057D01*
X162559523Y-112454819D02*
X161988095Y-112454819D01*
X162273809Y-112454819D02*
X162273809Y-111454819D01*
X162273809Y-111454819D02*
X162178571Y-111597676D01*
X162178571Y-111597676D02*
X162083333Y-111692914D01*
X162083333Y-111692914D02*
X161988095Y-111740533D01*
X163035714Y-112454819D02*
X163226190Y-112454819D01*
X163226190Y-112454819D02*
X163321428Y-112407200D01*
X163321428Y-112407200D02*
X163369047Y-112359580D01*
X163369047Y-112359580D02*
X163464285Y-112216723D01*
X163464285Y-112216723D02*
X163511904Y-112026247D01*
X163511904Y-112026247D02*
X163511904Y-111645295D01*
X163511904Y-111645295D02*
X163464285Y-111550057D01*
X163464285Y-111550057D02*
X163416666Y-111502438D01*
X163416666Y-111502438D02*
X163321428Y-111454819D01*
X163321428Y-111454819D02*
X163130952Y-111454819D01*
X163130952Y-111454819D02*
X163035714Y-111502438D01*
X163035714Y-111502438D02*
X162988095Y-111550057D01*
X162988095Y-111550057D02*
X162940476Y-111645295D01*
X162940476Y-111645295D02*
X162940476Y-111883390D01*
X162940476Y-111883390D02*
X162988095Y-111978628D01*
X162988095Y-111978628D02*
X163035714Y-112026247D01*
X163035714Y-112026247D02*
X163130952Y-112073866D01*
X163130952Y-112073866D02*
X163321428Y-112073866D01*
X163321428Y-112073866D02*
X163416666Y-112026247D01*
X163416666Y-112026247D02*
X163464285Y-111978628D01*
X163464285Y-111978628D02*
X163511904Y-111883390D01*
X162124819Y-104656666D02*
X161648628Y-104989999D01*
X162124819Y-105228094D02*
X161124819Y-105228094D01*
X161124819Y-105228094D02*
X161124819Y-104847142D01*
X161124819Y-104847142D02*
X161172438Y-104751904D01*
X161172438Y-104751904D02*
X161220057Y-104704285D01*
X161220057Y-104704285D02*
X161315295Y-104656666D01*
X161315295Y-104656666D02*
X161458152Y-104656666D01*
X161458152Y-104656666D02*
X161553390Y-104704285D01*
X161553390Y-104704285D02*
X161601009Y-104751904D01*
X161601009Y-104751904D02*
X161648628Y-104847142D01*
X161648628Y-104847142D02*
X161648628Y-105228094D01*
X162124819Y-104180475D02*
X162124819Y-103989999D01*
X162124819Y-103989999D02*
X162077200Y-103894761D01*
X162077200Y-103894761D02*
X162029580Y-103847142D01*
X162029580Y-103847142D02*
X161886723Y-103751904D01*
X161886723Y-103751904D02*
X161696247Y-103704285D01*
X161696247Y-103704285D02*
X161315295Y-103704285D01*
X161315295Y-103704285D02*
X161220057Y-103751904D01*
X161220057Y-103751904D02*
X161172438Y-103799523D01*
X161172438Y-103799523D02*
X161124819Y-103894761D01*
X161124819Y-103894761D02*
X161124819Y-104085237D01*
X161124819Y-104085237D02*
X161172438Y-104180475D01*
X161172438Y-104180475D02*
X161220057Y-104228094D01*
X161220057Y-104228094D02*
X161315295Y-104275713D01*
X161315295Y-104275713D02*
X161553390Y-104275713D01*
X161553390Y-104275713D02*
X161648628Y-104228094D01*
X161648628Y-104228094D02*
X161696247Y-104180475D01*
X161696247Y-104180475D02*
X161743866Y-104085237D01*
X161743866Y-104085237D02*
X161743866Y-103894761D01*
X161743866Y-103894761D02*
X161696247Y-103799523D01*
X161696247Y-103799523D02*
X161648628Y-103751904D01*
X161648628Y-103751904D02*
X161553390Y-103704285D01*
X157833333Y-96454819D02*
X157500000Y-95978628D01*
X157261905Y-96454819D02*
X157261905Y-95454819D01*
X157261905Y-95454819D02*
X157642857Y-95454819D01*
X157642857Y-95454819D02*
X157738095Y-95502438D01*
X157738095Y-95502438D02*
X157785714Y-95550057D01*
X157785714Y-95550057D02*
X157833333Y-95645295D01*
X157833333Y-95645295D02*
X157833333Y-95788152D01*
X157833333Y-95788152D02*
X157785714Y-95883390D01*
X157785714Y-95883390D02*
X157738095Y-95931009D01*
X157738095Y-95931009D02*
X157642857Y-95978628D01*
X157642857Y-95978628D02*
X157261905Y-95978628D01*
X158738095Y-95454819D02*
X158261905Y-95454819D01*
X158261905Y-95454819D02*
X158214286Y-95931009D01*
X158214286Y-95931009D02*
X158261905Y-95883390D01*
X158261905Y-95883390D02*
X158357143Y-95835771D01*
X158357143Y-95835771D02*
X158595238Y-95835771D01*
X158595238Y-95835771D02*
X158690476Y-95883390D01*
X158690476Y-95883390D02*
X158738095Y-95931009D01*
X158738095Y-95931009D02*
X158785714Y-96026247D01*
X158785714Y-96026247D02*
X158785714Y-96264342D01*
X158785714Y-96264342D02*
X158738095Y-96359580D01*
X158738095Y-96359580D02*
X158690476Y-96407200D01*
X158690476Y-96407200D02*
X158595238Y-96454819D01*
X158595238Y-96454819D02*
X158357143Y-96454819D01*
X158357143Y-96454819D02*
X158261905Y-96407200D01*
X158261905Y-96407200D02*
X158214286Y-96359580D01*
X141583333Y-89704819D02*
X141250000Y-89228628D01*
X141011905Y-89704819D02*
X141011905Y-88704819D01*
X141011905Y-88704819D02*
X141392857Y-88704819D01*
X141392857Y-88704819D02*
X141488095Y-88752438D01*
X141488095Y-88752438D02*
X141535714Y-88800057D01*
X141535714Y-88800057D02*
X141583333Y-88895295D01*
X141583333Y-88895295D02*
X141583333Y-89038152D01*
X141583333Y-89038152D02*
X141535714Y-89133390D01*
X141535714Y-89133390D02*
X141488095Y-89181009D01*
X141488095Y-89181009D02*
X141392857Y-89228628D01*
X141392857Y-89228628D02*
X141011905Y-89228628D01*
X141964286Y-88800057D02*
X142011905Y-88752438D01*
X142011905Y-88752438D02*
X142107143Y-88704819D01*
X142107143Y-88704819D02*
X142345238Y-88704819D01*
X142345238Y-88704819D02*
X142440476Y-88752438D01*
X142440476Y-88752438D02*
X142488095Y-88800057D01*
X142488095Y-88800057D02*
X142535714Y-88895295D01*
X142535714Y-88895295D02*
X142535714Y-88990533D01*
X142535714Y-88990533D02*
X142488095Y-89133390D01*
X142488095Y-89133390D02*
X141916667Y-89704819D01*
X141916667Y-89704819D02*
X142535714Y-89704819D01*
X150039164Y-94675361D02*
X150086784Y-94722980D01*
X150086784Y-94722980D02*
X150134403Y-94865837D01*
X150134403Y-94865837D02*
X150134403Y-94961075D01*
X150134403Y-94961075D02*
X150086784Y-95103932D01*
X150086784Y-95103932D02*
X149991545Y-95199170D01*
X149991545Y-95199170D02*
X149896307Y-95246789D01*
X149896307Y-95246789D02*
X149705831Y-95294408D01*
X149705831Y-95294408D02*
X149562974Y-95294408D01*
X149562974Y-95294408D02*
X149372498Y-95246789D01*
X149372498Y-95246789D02*
X149277260Y-95199170D01*
X149277260Y-95199170D02*
X149182022Y-95103932D01*
X149182022Y-95103932D02*
X149134403Y-94961075D01*
X149134403Y-94961075D02*
X149134403Y-94865837D01*
X149134403Y-94865837D02*
X149182022Y-94722980D01*
X149182022Y-94722980D02*
X149229641Y-94675361D01*
X150134403Y-93722980D02*
X150134403Y-94294408D01*
X150134403Y-94008694D02*
X149134403Y-94008694D01*
X149134403Y-94008694D02*
X149277260Y-94103932D01*
X149277260Y-94103932D02*
X149372498Y-94199170D01*
X149372498Y-94199170D02*
X149420117Y-94294408D01*
X129949580Y-93142857D02*
X129997200Y-93190476D01*
X129997200Y-93190476D02*
X130044819Y-93333333D01*
X130044819Y-93333333D02*
X130044819Y-93428571D01*
X130044819Y-93428571D02*
X129997200Y-93571428D01*
X129997200Y-93571428D02*
X129901961Y-93666666D01*
X129901961Y-93666666D02*
X129806723Y-93714285D01*
X129806723Y-93714285D02*
X129616247Y-93761904D01*
X129616247Y-93761904D02*
X129473390Y-93761904D01*
X129473390Y-93761904D02*
X129282914Y-93714285D01*
X129282914Y-93714285D02*
X129187676Y-93666666D01*
X129187676Y-93666666D02*
X129092438Y-93571428D01*
X129092438Y-93571428D02*
X129044819Y-93428571D01*
X129044819Y-93428571D02*
X129044819Y-93333333D01*
X129044819Y-93333333D02*
X129092438Y-93190476D01*
X129092438Y-93190476D02*
X129140057Y-93142857D01*
X130044819Y-92190476D02*
X130044819Y-92761904D01*
X130044819Y-92476190D02*
X129044819Y-92476190D01*
X129044819Y-92476190D02*
X129187676Y-92571428D01*
X129187676Y-92571428D02*
X129282914Y-92666666D01*
X129282914Y-92666666D02*
X129330533Y-92761904D01*
X130044819Y-91238095D02*
X130044819Y-91809523D01*
X130044819Y-91523809D02*
X129044819Y-91523809D01*
X129044819Y-91523809D02*
X129187676Y-91619047D01*
X129187676Y-91619047D02*
X129282914Y-91714285D01*
X129282914Y-91714285D02*
X129330533Y-91809523D01*
X128793333Y-115704819D02*
X128460000Y-115228628D01*
X128221905Y-115704819D02*
X128221905Y-114704819D01*
X128221905Y-114704819D02*
X128602857Y-114704819D01*
X128602857Y-114704819D02*
X128698095Y-114752438D01*
X128698095Y-114752438D02*
X128745714Y-114800057D01*
X128745714Y-114800057D02*
X128793333Y-114895295D01*
X128793333Y-114895295D02*
X128793333Y-115038152D01*
X128793333Y-115038152D02*
X128745714Y-115133390D01*
X128745714Y-115133390D02*
X128698095Y-115181009D01*
X128698095Y-115181009D02*
X128602857Y-115228628D01*
X128602857Y-115228628D02*
X128221905Y-115228628D01*
X129364762Y-115133390D02*
X129269524Y-115085771D01*
X129269524Y-115085771D02*
X129221905Y-115038152D01*
X129221905Y-115038152D02*
X129174286Y-114942914D01*
X129174286Y-114942914D02*
X129174286Y-114895295D01*
X129174286Y-114895295D02*
X129221905Y-114800057D01*
X129221905Y-114800057D02*
X129269524Y-114752438D01*
X129269524Y-114752438D02*
X129364762Y-114704819D01*
X129364762Y-114704819D02*
X129555238Y-114704819D01*
X129555238Y-114704819D02*
X129650476Y-114752438D01*
X129650476Y-114752438D02*
X129698095Y-114800057D01*
X129698095Y-114800057D02*
X129745714Y-114895295D01*
X129745714Y-114895295D02*
X129745714Y-114942914D01*
X129745714Y-114942914D02*
X129698095Y-115038152D01*
X129698095Y-115038152D02*
X129650476Y-115085771D01*
X129650476Y-115085771D02*
X129555238Y-115133390D01*
X129555238Y-115133390D02*
X129364762Y-115133390D01*
X129364762Y-115133390D02*
X129269524Y-115181009D01*
X129269524Y-115181009D02*
X129221905Y-115228628D01*
X129221905Y-115228628D02*
X129174286Y-115323866D01*
X129174286Y-115323866D02*
X129174286Y-115514342D01*
X129174286Y-115514342D02*
X129221905Y-115609580D01*
X129221905Y-115609580D02*
X129269524Y-115657200D01*
X129269524Y-115657200D02*
X129364762Y-115704819D01*
X129364762Y-115704819D02*
X129555238Y-115704819D01*
X129555238Y-115704819D02*
X129650476Y-115657200D01*
X129650476Y-115657200D02*
X129698095Y-115609580D01*
X129698095Y-115609580D02*
X129745714Y-115514342D01*
X129745714Y-115514342D02*
X129745714Y-115323866D01*
X129745714Y-115323866D02*
X129698095Y-115228628D01*
X129698095Y-115228628D02*
X129650476Y-115181009D01*
X129650476Y-115181009D02*
X129555238Y-115133390D01*
X129949580Y-103425361D02*
X129997200Y-103472980D01*
X129997200Y-103472980D02*
X130044819Y-103615837D01*
X130044819Y-103615837D02*
X130044819Y-103711075D01*
X130044819Y-103711075D02*
X129997200Y-103853932D01*
X129997200Y-103853932D02*
X129901961Y-103949170D01*
X129901961Y-103949170D02*
X129806723Y-103996789D01*
X129806723Y-103996789D02*
X129616247Y-104044408D01*
X129616247Y-104044408D02*
X129473390Y-104044408D01*
X129473390Y-104044408D02*
X129282914Y-103996789D01*
X129282914Y-103996789D02*
X129187676Y-103949170D01*
X129187676Y-103949170D02*
X129092438Y-103853932D01*
X129092438Y-103853932D02*
X129044819Y-103711075D01*
X129044819Y-103711075D02*
X129044819Y-103615837D01*
X129044819Y-103615837D02*
X129092438Y-103472980D01*
X129092438Y-103472980D02*
X129140057Y-103425361D01*
X129044819Y-103092027D02*
X129044819Y-102425361D01*
X129044819Y-102425361D02*
X130044819Y-102853932D01*
X116278628Y-100726190D02*
X116754819Y-100726190D01*
X115754819Y-101059523D02*
X116278628Y-100726190D01*
X116278628Y-100726190D02*
X115754819Y-100392857D01*
X115850057Y-100107142D02*
X115802438Y-100059523D01*
X115802438Y-100059523D02*
X115754819Y-99964285D01*
X115754819Y-99964285D02*
X115754819Y-99726190D01*
X115754819Y-99726190D02*
X115802438Y-99630952D01*
X115802438Y-99630952D02*
X115850057Y-99583333D01*
X115850057Y-99583333D02*
X115945295Y-99535714D01*
X115945295Y-99535714D02*
X116040533Y-99535714D01*
X116040533Y-99535714D02*
X116183390Y-99583333D01*
X116183390Y-99583333D02*
X116754819Y-100154761D01*
X116754819Y-100154761D02*
X116754819Y-99535714D01*
X129833333Y-108204819D02*
X129500000Y-107728628D01*
X129261905Y-108204819D02*
X129261905Y-107204819D01*
X129261905Y-107204819D02*
X129642857Y-107204819D01*
X129642857Y-107204819D02*
X129738095Y-107252438D01*
X129738095Y-107252438D02*
X129785714Y-107300057D01*
X129785714Y-107300057D02*
X129833333Y-107395295D01*
X129833333Y-107395295D02*
X129833333Y-107538152D01*
X129833333Y-107538152D02*
X129785714Y-107633390D01*
X129785714Y-107633390D02*
X129738095Y-107681009D01*
X129738095Y-107681009D02*
X129642857Y-107728628D01*
X129642857Y-107728628D02*
X129261905Y-107728628D01*
X130166667Y-107204819D02*
X130833333Y-107204819D01*
X130833333Y-107204819D02*
X130404762Y-108204819D01*
X118857142Y-97359580D02*
X118809523Y-97407200D01*
X118809523Y-97407200D02*
X118666666Y-97454819D01*
X118666666Y-97454819D02*
X118571428Y-97454819D01*
X118571428Y-97454819D02*
X118428571Y-97407200D01*
X118428571Y-97407200D02*
X118333333Y-97311961D01*
X118333333Y-97311961D02*
X118285714Y-97216723D01*
X118285714Y-97216723D02*
X118238095Y-97026247D01*
X118238095Y-97026247D02*
X118238095Y-96883390D01*
X118238095Y-96883390D02*
X118285714Y-96692914D01*
X118285714Y-96692914D02*
X118333333Y-96597676D01*
X118333333Y-96597676D02*
X118428571Y-96502438D01*
X118428571Y-96502438D02*
X118571428Y-96454819D01*
X118571428Y-96454819D02*
X118666666Y-96454819D01*
X118666666Y-96454819D02*
X118809523Y-96502438D01*
X118809523Y-96502438D02*
X118857142Y-96550057D01*
X119809523Y-97454819D02*
X119238095Y-97454819D01*
X119523809Y-97454819D02*
X119523809Y-96454819D01*
X119523809Y-96454819D02*
X119428571Y-96597676D01*
X119428571Y-96597676D02*
X119333333Y-96692914D01*
X119333333Y-96692914D02*
X119238095Y-96740533D01*
X120142857Y-96454819D02*
X120761904Y-96454819D01*
X120761904Y-96454819D02*
X120428571Y-96835771D01*
X120428571Y-96835771D02*
X120571428Y-96835771D01*
X120571428Y-96835771D02*
X120666666Y-96883390D01*
X120666666Y-96883390D02*
X120714285Y-96931009D01*
X120714285Y-96931009D02*
X120761904Y-97026247D01*
X120761904Y-97026247D02*
X120761904Y-97264342D01*
X120761904Y-97264342D02*
X120714285Y-97359580D01*
X120714285Y-97359580D02*
X120666666Y-97407200D01*
X120666666Y-97407200D02*
X120571428Y-97454819D01*
X120571428Y-97454819D02*
X120285714Y-97454819D01*
X120285714Y-97454819D02*
X120190476Y-97407200D01*
X120190476Y-97407200D02*
X120142857Y-97359580D01*
%TO.C,R3*%
D11*
X162620000Y-98096359D02*
X162620000Y-98403641D01*
X163380000Y-98096359D02*
X163380000Y-98403641D01*
%TO.C,FB1*%
X131759584Y-106345916D02*
X131759584Y-106671474D01*
X132779584Y-106345916D02*
X132779584Y-106671474D01*
%TO.C,C5*%
X144161748Y-107398695D02*
X144377420Y-107398695D01*
X144161748Y-108118695D02*
X144377420Y-108118695D01*
%TO.C,U2*%
X153190000Y-99940000D02*
X157310000Y-99940000D01*
X153190000Y-100035000D02*
X153190000Y-99940000D01*
X153190000Y-105060000D02*
X153190000Y-104965000D01*
X157310000Y-99940000D02*
X157310000Y-100035000D01*
X157310000Y-104965000D02*
X157310000Y-105060000D01*
X157310000Y-105060000D02*
X153190000Y-105060000D01*
X152650000Y-100030000D02*
X152410000Y-99700000D01*
X152890000Y-99700000D01*
X152650000Y-100030000D01*
G36*
X152650000Y-100030000D02*
G01*
X152410000Y-99700000D01*
X152890000Y-99700000D01*
X152650000Y-100030000D01*
G37*
%TO.C,C6*%
X132159584Y-103366531D02*
X132159584Y-103150859D01*
X132879584Y-103366531D02*
X132879584Y-103150859D01*
%TO.C,C8*%
X137647420Y-108648695D02*
X137431748Y-108648695D01*
X137647420Y-109368695D02*
X137431748Y-109368695D01*
%TO.C,U3*%
X157202500Y-113640000D02*
X159022500Y-113640000D01*
X157202500Y-113690000D02*
X157202500Y-113640000D01*
X157202500Y-116760000D02*
X157202500Y-116710000D01*
X159022500Y-113640000D02*
X159022500Y-113690000D01*
X159022500Y-114810000D02*
X159022500Y-115590000D01*
X159022500Y-116710000D02*
X159022500Y-116760000D01*
X159022500Y-116760000D02*
X157202500Y-116760000D01*
X156662500Y-113690000D02*
X156422500Y-113360000D01*
X156902500Y-113360000D01*
X156662500Y-113690000D01*
G36*
X156662500Y-113690000D02*
G01*
X156422500Y-113360000D01*
X156902500Y-113360000D01*
X156662500Y-113690000D01*
G37*
%TO.C,J1*%
X140580000Y-83120000D02*
X140580000Y-85880000D01*
X148310000Y-83120000D02*
X140580000Y-83120000D01*
X148310000Y-83120000D02*
X148310000Y-85880000D01*
X148310000Y-85880000D02*
X140580000Y-85880000D01*
X149580000Y-83120000D02*
X150960000Y-83120000D01*
X150960000Y-83120000D02*
X150960000Y-84500000D01*
%TO.C,C18*%
X156872164Y-111640000D02*
X157087836Y-111640000D01*
X156872164Y-112360000D02*
X157087836Y-112360000D01*
%TO.C,Y1*%
X117540000Y-92290000D02*
X117540000Y-94710000D01*
X117540000Y-94710000D02*
X120360000Y-94710000D01*
%TO.C,J3*%
X168120000Y-107095000D02*
X169500000Y-107095000D01*
X168120000Y-108475000D02*
X168120000Y-107095000D01*
X168120000Y-109745000D02*
X168120000Y-112395000D01*
X168120000Y-109745000D02*
X170880000Y-109745000D01*
X168120000Y-112395000D02*
X170880000Y-112395000D01*
X170880000Y-109745000D02*
X170880000Y-112395000D01*
%TO.C,R4*%
X162620000Y-100346359D02*
X162620000Y-100653641D01*
X163380000Y-100346359D02*
X163380000Y-100653641D01*
%TO.C,C10*%
X132159584Y-91886531D02*
X132159584Y-91670859D01*
X132879584Y-91886531D02*
X132879584Y-91670859D01*
%TO.C,R6*%
X149370000Y-102903641D02*
X149370000Y-102596359D01*
X150130000Y-102903641D02*
X150130000Y-102596359D01*
%TO.C,C16*%
X151607836Y-106640000D02*
X151392164Y-106640000D01*
X151607836Y-107360000D02*
X151392164Y-107360000D01*
%TO.C,D1*%
X153950000Y-97985000D02*
X156235000Y-97985000D01*
X156235000Y-96515000D02*
X153950000Y-96515000D01*
X156235000Y-97985000D02*
X156235000Y-96515000D01*
%TO.C,C3*%
X135627836Y-89398695D02*
X135412164Y-89398695D01*
X135627836Y-90118695D02*
X135412164Y-90118695D01*
%TO.C,J5*%
X137080000Y-115620000D02*
X137080000Y-118380000D01*
X144810000Y-115620000D02*
X137080000Y-115620000D01*
X144810000Y-115620000D02*
X144810000Y-118380000D01*
X144810000Y-118380000D02*
X137080000Y-118380000D01*
X146080000Y-115620000D02*
X147460000Y-115620000D01*
X147460000Y-115620000D02*
X147460000Y-117000000D01*
%TO.C,C4*%
X144377420Y-105648695D02*
X144161748Y-105648695D01*
X144377420Y-106368695D02*
X144161748Y-106368695D01*
%TO.C,J6*%
X153830000Y-85880000D02*
X153830000Y-84500000D01*
X155210000Y-85880000D02*
X153830000Y-85880000D01*
X156480000Y-83120000D02*
X164210000Y-83120000D01*
X156480000Y-85880000D02*
X156480000Y-83120000D01*
X156480000Y-85880000D02*
X164210000Y-85880000D01*
X164210000Y-85880000D02*
X164210000Y-83120000D01*
%TO.C,J7*%
X127080000Y-85880000D02*
X127080000Y-84500000D01*
X128460000Y-85880000D02*
X127080000Y-85880000D01*
X129730000Y-83120000D02*
X137460000Y-83120000D01*
X129730000Y-85880000D02*
X129730000Y-83120000D01*
X129730000Y-85880000D02*
X137460000Y-85880000D01*
X137460000Y-85880000D02*
X137460000Y-83120000D01*
%TO.C,C2*%
X137411748Y-105648695D02*
X137627420Y-105648695D01*
X137411748Y-106368695D02*
X137627420Y-106368695D01*
%TO.C,C12*%
X121140000Y-100892164D02*
X121140000Y-101107836D01*
X121860000Y-100892164D02*
X121860000Y-101107836D01*
%TO.C,R1*%
X123120000Y-99096359D02*
X123120000Y-99403641D01*
X123880000Y-99096359D02*
X123880000Y-99403641D01*
%TO.C,SW1*%
X122000000Y-107250000D02*
X122000000Y-107150000D01*
X122000000Y-108750000D02*
X126400000Y-108750000D01*
X126400000Y-105650000D02*
X122000000Y-105650000D01*
X126400000Y-107250000D02*
X126400000Y-107150000D01*
%TO.C,C15*%
X121390000Y-94642164D02*
X121390000Y-94857836D01*
X122110000Y-94642164D02*
X122110000Y-94857836D01*
%TO.C,C9*%
X131890000Y-98892164D02*
X131890000Y-99107836D01*
X132610000Y-98892164D02*
X132610000Y-99107836D01*
%TO.C,C14*%
X121390000Y-92107836D02*
X121390000Y-91892164D01*
X122110000Y-92107836D02*
X122110000Y-91892164D01*
%TO.C,C17*%
X157857836Y-106640000D02*
X157642164Y-106640000D01*
X157857836Y-107360000D02*
X157642164Y-107360000D01*
%TO.C,C19*%
X159837836Y-111640000D02*
X159622164Y-111640000D01*
X159837836Y-112360000D02*
X159622164Y-112360000D01*
%TO.C,R9*%
X160120000Y-104336359D02*
X160120000Y-104643641D01*
X160880000Y-104336359D02*
X160880000Y-104643641D01*
%TO.C,R5*%
X158153641Y-96870000D02*
X157846359Y-96870000D01*
X158153641Y-97630000D02*
X157846359Y-97630000D01*
%TO.C,R2*%
X137616775Y-89370000D02*
X137924057Y-89370000D01*
X137616775Y-90130000D02*
X137924057Y-90130000D01*
%TO.C,C1*%
X148159584Y-94400859D02*
X148159584Y-94616531D01*
X148879584Y-94400859D02*
X148879584Y-94616531D01*
%TO.C,C11*%
X130390000Y-91857836D02*
X130390000Y-91642164D01*
X131110000Y-91857836D02*
X131110000Y-91642164D01*
%TO.C,R8*%
X128806359Y-112320000D02*
X129113641Y-112320000D01*
X128806359Y-113080000D02*
X129113641Y-113080000D01*
%TO.C,J2*%
X169750000Y-94580000D02*
X168050000Y-94580000D01*
X169750000Y-103920000D02*
X168050000Y-103920000D01*
%TO.C,C7*%
X130390000Y-103366531D02*
X130390000Y-103150859D01*
X131110000Y-103366531D02*
X131110000Y-103150859D01*
D12*
%TO.C,G\u002A\u002A\u002A*%
G36*
X165614536Y-91391397D02*
G01*
X165620487Y-91403142D01*
X165628444Y-91421612D01*
X165637621Y-91445073D01*
X165640030Y-91451556D01*
X165664798Y-91518919D01*
X165612083Y-91518919D01*
X165559367Y-91518919D01*
X165562438Y-91510820D01*
X165569090Y-91510820D01*
X165571790Y-91513519D01*
X165574490Y-91510820D01*
X165571790Y-91508120D01*
X165569090Y-91510820D01*
X165562438Y-91510820D01*
X165583424Y-91455473D01*
X165592881Y-91431014D01*
X165601240Y-91410279D01*
X165607642Y-91395342D01*
X165611225Y-91388280D01*
X165611371Y-91388110D01*
X165614536Y-91391397D01*
G37*
G36*
X167419812Y-91497320D02*
G01*
X167450954Y-91499245D01*
X167472286Y-91501794D01*
X167484790Y-91505208D01*
X167489448Y-91509725D01*
X167488356Y-91514026D01*
X167489203Y-91517836D01*
X167491705Y-91517703D01*
X167497805Y-91521035D01*
X167502390Y-91531766D01*
X167504640Y-91546517D01*
X167503731Y-91561910D01*
X167503129Y-91564646D01*
X167495871Y-91579453D01*
X167482017Y-91589924D01*
X167460473Y-91596483D01*
X167430145Y-91599550D01*
X167411724Y-91599906D01*
X167361777Y-91599914D01*
X167361766Y-91547267D01*
X167361755Y-91494621D01*
X167419812Y-91497320D01*
G37*
G36*
X167416259Y-91363173D02*
G01*
X167441421Y-91364243D01*
X167458154Y-91365754D01*
X167468824Y-91368240D01*
X167475800Y-91372234D01*
X167481054Y-91377776D01*
X167489286Y-91395533D01*
X167491369Y-91413563D01*
X167489435Y-91429805D01*
X167484543Y-91441614D01*
X167478057Y-91446699D01*
X167472873Y-91444627D01*
X167470323Y-91445089D01*
X167470670Y-91448724D01*
X167469733Y-91452536D01*
X167463817Y-91455265D01*
X167451246Y-91457249D01*
X167430344Y-91458824D01*
X167417111Y-91459523D01*
X167361752Y-91462223D01*
X167361765Y-91411770D01*
X167361777Y-91361317D01*
X167416259Y-91363173D01*
G37*
G36*
X165906615Y-91363386D02*
G01*
X165929765Y-91364936D01*
X165945125Y-91367213D01*
X165955704Y-91371078D01*
X165964510Y-91377390D01*
X165968502Y-91381072D01*
X165982270Y-91400943D01*
X165988290Y-91424626D01*
X165986778Y-91449137D01*
X165977954Y-91471495D01*
X165962035Y-91488718D01*
X165960561Y-91489720D01*
X165943657Y-91496330D01*
X165917147Y-91500593D01*
X165904137Y-91501591D01*
X165862118Y-91504024D01*
X165859596Y-91485823D01*
X165858410Y-91469624D01*
X165857980Y-91445588D01*
X165858300Y-91416652D01*
X165859364Y-91385749D01*
X165859829Y-91376501D01*
X165860671Y-91360975D01*
X165906615Y-91363386D01*
G37*
G36*
X168479876Y-91366019D02*
G01*
X168512688Y-91377092D01*
X168537625Y-91395553D01*
X168554693Y-91421407D01*
X168563895Y-91454660D01*
X168565664Y-91481121D01*
X168561496Y-91518260D01*
X168549373Y-91549386D01*
X168529867Y-91573629D01*
X168503547Y-91590117D01*
X168491488Y-91594277D01*
X168476264Y-91597141D01*
X168456810Y-91599004D01*
X168436382Y-91599794D01*
X168418237Y-91599434D01*
X168405632Y-91597851D01*
X168402111Y-91596314D01*
X168401047Y-91590076D01*
X168400107Y-91574669D01*
X168399342Y-91551726D01*
X168398800Y-91522876D01*
X168398532Y-91489751D01*
X168398512Y-91477522D01*
X168398512Y-91362329D01*
X168439183Y-91362329D01*
X168479876Y-91366019D01*
G37*
G36*
X171584311Y-90249999D02*
G01*
X171584311Y-92750042D01*
X167000000Y-92750042D01*
X162415689Y-92750042D01*
X162415689Y-91633029D01*
X167961139Y-91633029D01*
X167964929Y-91632593D01*
X168112330Y-91632593D01*
X168194674Y-91631103D01*
X168277019Y-91629612D01*
X168278728Y-91614763D01*
X168280436Y-91599914D01*
X168212582Y-91599914D01*
X168144728Y-91599914D01*
X168144728Y-91477522D01*
X168144728Y-91464922D01*
X168144728Y-91329931D01*
X168366114Y-91329931D01*
X168366114Y-91477522D01*
X168366256Y-91516443D01*
X168366659Y-91551820D01*
X168367283Y-91582218D01*
X168368091Y-91606202D01*
X168369043Y-91622337D01*
X168370102Y-91629187D01*
X168370163Y-91629267D01*
X168376850Y-91630702D01*
X168392063Y-91631537D01*
X168413542Y-91631711D01*
X168439009Y-91631161D01*
X168469292Y-91629745D01*
X168491255Y-91627698D01*
X168507378Y-91624632D01*
X168520138Y-91620158D01*
X168525404Y-91617602D01*
X168554815Y-91597093D01*
X168558267Y-91592838D01*
X168681792Y-91592838D01*
X168685378Y-91600282D01*
X168690733Y-91604663D01*
X168715780Y-91618606D01*
X168744856Y-91627668D01*
X168775016Y-91631567D01*
X168803314Y-91630025D01*
X168826803Y-91622760D01*
X168834028Y-91618312D01*
X168854632Y-91599230D01*
X168866070Y-91578459D01*
X168869909Y-91553126D01*
X168869919Y-91552517D01*
X168867514Y-91528214D01*
X168858761Y-91508400D01*
X168842574Y-91492008D01*
X168817866Y-91477970D01*
X168783548Y-91465219D01*
X168779782Y-91464047D01*
X168753471Y-91454683D01*
X168736279Y-91444909D01*
X168726580Y-91433234D01*
X168722748Y-91418166D01*
X168722491Y-91411524D01*
X168725672Y-91389614D01*
X168735899Y-91374899D01*
X168754201Y-91366381D01*
X168771949Y-91363607D01*
X168794363Y-91363303D01*
X168812628Y-91367508D01*
X168824666Y-91372914D01*
X168838359Y-91379437D01*
X168847367Y-91382854D01*
X168849175Y-91382954D01*
X168857220Y-91369326D01*
X168858588Y-91357382D01*
X168855605Y-91352212D01*
X168834118Y-91340115D01*
X168806576Y-91332617D01*
X168776913Y-91330214D01*
X168749063Y-91333399D01*
X168736915Y-91337296D01*
X168716664Y-91350301D01*
X168699374Y-91369455D01*
X168688459Y-91390786D01*
X168687329Y-91395020D01*
X168685664Y-91423712D01*
X168694107Y-91448622D01*
X168712662Y-91469753D01*
X168741332Y-91487110D01*
X168767624Y-91497081D01*
X168798002Y-91508189D01*
X168818707Y-91519796D01*
X168830855Y-91532810D01*
X168835566Y-91548141D01*
X168835712Y-91552409D01*
X168830995Y-91573709D01*
X168817567Y-91588897D01*
X168795812Y-91597685D01*
X168772441Y-91599914D01*
X168758054Y-91597949D01*
X168741049Y-91592943D01*
X168724629Y-91586224D01*
X168711995Y-91579122D01*
X168706349Y-91572969D01*
X168706292Y-91572434D01*
X168703297Y-91567285D01*
X168696407Y-91568930D01*
X168688768Y-91575976D01*
X168685357Y-91581715D01*
X168681792Y-91592838D01*
X168558267Y-91592838D01*
X168577277Y-91569406D01*
X168587914Y-91548948D01*
X168592982Y-91532418D01*
X168819685Y-91532418D01*
X168822385Y-91535118D01*
X168825085Y-91532418D01*
X168822385Y-91529718D01*
X168819685Y-91532418D01*
X168592982Y-91532418D01*
X168600143Y-91509060D01*
X168602325Y-91468957D01*
X168594751Y-91430269D01*
X168577713Y-91394622D01*
X168555318Y-91367252D01*
X168538526Y-91352754D01*
X168521043Y-91342421D01*
X168500629Y-91335621D01*
X168475043Y-91331723D01*
X168442046Y-91330093D01*
X168423119Y-91329931D01*
X168366114Y-91329931D01*
X168144728Y-91329931D01*
X168128529Y-91329931D01*
X168112330Y-91329931D01*
X168112330Y-91481262D01*
X168112330Y-91632593D01*
X167964929Y-91632593D01*
X167975988Y-91631321D01*
X167990837Y-91629612D01*
X167990837Y-91481262D01*
X167990837Y-91481121D01*
X167990837Y-91332631D01*
X167975988Y-91330922D01*
X167961139Y-91329214D01*
X167961139Y-91481121D01*
X167961139Y-91633029D01*
X162415689Y-91633029D01*
X162415689Y-91477522D01*
X162415689Y-91329931D01*
X165137117Y-91329931D01*
X165137117Y-91477522D01*
X165137252Y-91516422D01*
X165137632Y-91551760D01*
X165138222Y-91582104D01*
X165138985Y-91606023D01*
X165139885Y-91622086D01*
X165140885Y-91628863D01*
X165140945Y-91628940D01*
X165148873Y-91631406D01*
X165155794Y-91631190D01*
X165159554Y-91630180D01*
X165162400Y-91627433D01*
X165164507Y-91621537D01*
X165166053Y-91611077D01*
X165167216Y-91594643D01*
X165168172Y-91570821D01*
X165169099Y-91538197D01*
X165169515Y-91521828D01*
X165172215Y-91414043D01*
X165215412Y-91504212D01*
X165232049Y-91538335D01*
X165245024Y-91563462D01*
X165254894Y-91580541D01*
X165262214Y-91590518D01*
X165267541Y-91594339D01*
X165268423Y-91594448D01*
X165273340Y-91591867D01*
X165280158Y-91583442D01*
X165289432Y-91568234D01*
X165301720Y-91545307D01*
X165317577Y-91513720D01*
X165323624Y-91501370D01*
X165369011Y-91408226D01*
X165369157Y-91520269D01*
X165369302Y-91632312D01*
X165385501Y-91632312D01*
X165401700Y-91632312D01*
X165401700Y-91626963D01*
X165486992Y-91626963D01*
X165492293Y-91631325D01*
X165503980Y-91631210D01*
X165511758Y-91628770D01*
X165518281Y-91622108D01*
X165525090Y-91609060D01*
X165532071Y-91591814D01*
X165546573Y-91554017D01*
X165612287Y-91554017D01*
X165678002Y-91554017D01*
X165692501Y-91591814D01*
X165700283Y-91611229D01*
X165706344Y-91622705D01*
X165712534Y-91628495D01*
X165720700Y-91630854D01*
X165724924Y-91631340D01*
X165736842Y-91631665D01*
X165740595Y-91628506D01*
X165739569Y-91623241D01*
X165736856Y-91615757D01*
X165730848Y-91599577D01*
X165722071Y-91576107D01*
X165711051Y-91546751D01*
X165698316Y-91512913D01*
X165684966Y-91477522D01*
X165684391Y-91475999D01*
X165683266Y-91473022D01*
X165630241Y-91332631D01*
X165612357Y-91332631D01*
X165594473Y-91332631D01*
X165549454Y-91451423D01*
X165536010Y-91486893D01*
X165523221Y-91520622D01*
X165511795Y-91550746D01*
X165502438Y-91575404D01*
X165495855Y-91592734D01*
X165493866Y-91597964D01*
X165487689Y-91616409D01*
X165486992Y-91626963D01*
X165401700Y-91626963D01*
X165401700Y-91481121D01*
X165401700Y-91329931D01*
X165822874Y-91329931D01*
X165822874Y-91477522D01*
X165823001Y-91516408D01*
X165823358Y-91551718D01*
X165823913Y-91582024D01*
X165824630Y-91605898D01*
X165825476Y-91621911D01*
X165826417Y-91628637D01*
X165826474Y-91628712D01*
X165834200Y-91631553D01*
X165842673Y-91632312D01*
X165850721Y-91630957D01*
X165854653Y-91624949D01*
X165856195Y-91611376D01*
X165856290Y-91609363D01*
X165856998Y-91589121D01*
X165857536Y-91566300D01*
X165857640Y-91559497D01*
X165857972Y-91532579D01*
X165896558Y-91530922D01*
X165935145Y-91529265D01*
X165960890Y-91576739D01*
X165972385Y-91597283D01*
X165982518Y-91614212D01*
X165989898Y-91625262D01*
X165992499Y-91628180D01*
X166002307Y-91631603D01*
X166013543Y-91631863D01*
X166021447Y-91629176D01*
X166022661Y-91626793D01*
X166020121Y-91620019D01*
X166013279Y-91606211D01*
X166003300Y-91587645D01*
X165995707Y-91574146D01*
X165968754Y-91527019D01*
X165987543Y-91510820D01*
X166007720Y-91486673D01*
X166019456Y-91457616D01*
X166022272Y-91426036D01*
X166015687Y-91394319D01*
X166012506Y-91386627D01*
X166000643Y-91365962D01*
X165997070Y-91362329D01*
X166087457Y-91362329D01*
X166130654Y-91362329D01*
X166173852Y-91362329D01*
X166173852Y-91493721D01*
X166173994Y-91530350D01*
X166174393Y-91563343D01*
X166175009Y-91591180D01*
X166175801Y-91612342D01*
X166176729Y-91625309D01*
X166177452Y-91628712D01*
X166185178Y-91631553D01*
X166193651Y-91632312D01*
X166206250Y-91632312D01*
X166206250Y-91549247D01*
X166379949Y-91549247D01*
X166380096Y-91579485D01*
X166380438Y-91603346D01*
X166380963Y-91619328D01*
X166381616Y-91625839D01*
X166388704Y-91630814D01*
X166399257Y-91631324D01*
X166414137Y-91629612D01*
X166413075Y-91508120D01*
X166412952Y-91494078D01*
X166532226Y-91494078D01*
X166532321Y-91529225D01*
X166532646Y-91560308D01*
X166533176Y-91585369D01*
X166533888Y-91602453D01*
X166534254Y-91606951D01*
X166536442Y-91622477D01*
X166539732Y-91629842D01*
X166545949Y-91631660D01*
X166551212Y-91631250D01*
X166565327Y-91629612D01*
X166566790Y-91516494D01*
X166567911Y-91429825D01*
X166573427Y-91429825D01*
X166576126Y-91432525D01*
X166578826Y-91429825D01*
X166576126Y-91427125D01*
X166573427Y-91429825D01*
X166567911Y-91429825D01*
X166568253Y-91403377D01*
X166644136Y-91518167D01*
X166670869Y-91558660D01*
X166692313Y-91590509D01*
X166709062Y-91613489D01*
X166721710Y-91627373D01*
X166730850Y-91631936D01*
X166737075Y-91626950D01*
X166740981Y-91612191D01*
X166743077Y-91588360D01*
X166844631Y-91588360D01*
X166846796Y-91597655D01*
X166857153Y-91606972D01*
X166883172Y-91620798D01*
X166913960Y-91629343D01*
X166945746Y-91632082D01*
X166974758Y-91628484D01*
X166985324Y-91624908D01*
X167007863Y-91611704D01*
X167022256Y-91593810D01*
X167029811Y-91569236D01*
X167031378Y-91554686D01*
X167032164Y-91535414D01*
X167030707Y-91522799D01*
X167025867Y-91512753D01*
X167024066Y-91510529D01*
X167118792Y-91510529D01*
X167120257Y-91521630D01*
X167122392Y-91526119D01*
X167129078Y-91527730D01*
X167143880Y-91528968D01*
X167164114Y-91529646D01*
X167173689Y-91529718D01*
X167221386Y-91529718D01*
X167221386Y-91514149D01*
X167220217Y-91504988D01*
X167215554Y-91499080D01*
X167205660Y-91495937D01*
X167188801Y-91495068D01*
X167163239Y-91495986D01*
X167157940Y-91496283D01*
X167137693Y-91497715D01*
X167125953Y-91499655D01*
X167120433Y-91502934D01*
X167118844Y-91508386D01*
X167118792Y-91510529D01*
X167024066Y-91510529D01*
X167016501Y-91501189D01*
X167016403Y-91501077D01*
X167004532Y-91489755D01*
X166989635Y-91480555D01*
X166982355Y-91477522D01*
X166968747Y-91471853D01*
X166953460Y-91466635D01*
X166924930Y-91456465D01*
X166905504Y-91447034D01*
X166893663Y-91437141D01*
X166887886Y-91425586D01*
X166886607Y-91413857D01*
X166888283Y-91393713D01*
X166894451Y-91380614D01*
X166906819Y-91371170D01*
X166908592Y-91370229D01*
X166932428Y-91363334D01*
X166959818Y-91363968D01*
X166986738Y-91371962D01*
X166990148Y-91373612D01*
X167006655Y-91380099D01*
X167016543Y-91378625D01*
X167020979Y-91368708D01*
X167021516Y-91360715D01*
X167016627Y-91350941D01*
X167003422Y-91342485D01*
X166984355Y-91335873D01*
X166961879Y-91331631D01*
X166938448Y-91330282D01*
X166916517Y-91332352D01*
X166904507Y-91335674D01*
X166879657Y-91350378D01*
X166862037Y-91371826D01*
X166852745Y-91397876D01*
X166852877Y-91426383D01*
X166854471Y-91433497D01*
X166863520Y-91454839D01*
X166878806Y-91471842D01*
X166901864Y-91485764D01*
X166932630Y-91497360D01*
X166961173Y-91507175D01*
X166980629Y-91516376D01*
X166992551Y-91526216D01*
X166998488Y-91537946D01*
X167000000Y-91551709D01*
X166995456Y-91573864D01*
X166982314Y-91589780D01*
X166964718Y-91597743D01*
X166939551Y-91599655D01*
X166911633Y-91594911D01*
X166885871Y-91584470D01*
X166880638Y-91581279D01*
X166867288Y-91572859D01*
X166859655Y-91570103D01*
X166854593Y-91572509D01*
X166851210Y-91576577D01*
X166844631Y-91588360D01*
X166743077Y-91588360D01*
X166743159Y-91587432D01*
X166744204Y-91552446D01*
X166744710Y-91507009D01*
X166744951Y-91479772D01*
X166746387Y-91329931D01*
X167329379Y-91329931D01*
X167329379Y-91477522D01*
X167329506Y-91516408D01*
X167329863Y-91551718D01*
X167330418Y-91582024D01*
X167331135Y-91605898D01*
X167331981Y-91621911D01*
X167332922Y-91628637D01*
X167332979Y-91628712D01*
X167340252Y-91630635D01*
X167355769Y-91631812D01*
X167377003Y-91632286D01*
X167401427Y-91632099D01*
X167426514Y-91631295D01*
X167449737Y-91629914D01*
X167468570Y-91628001D01*
X167478183Y-91626270D01*
X167503647Y-91614944D01*
X167522578Y-91596778D01*
X167534417Y-91573930D01*
X167538603Y-91548559D01*
X167534577Y-91522822D01*
X167521777Y-91498877D01*
X167513602Y-91489829D01*
X167497797Y-91474686D01*
X167510782Y-91455552D01*
X167521616Y-91431411D01*
X167524484Y-91405005D01*
X167519442Y-91379764D01*
X167509170Y-91362009D01*
X167496888Y-91349446D01*
X167483214Y-91340551D01*
X167466068Y-91334745D01*
X167443373Y-91331447D01*
X167413049Y-91330075D01*
X167394348Y-91329931D01*
X167636391Y-91329931D01*
X167638125Y-91444674D01*
X167638734Y-91482704D01*
X167639386Y-91511588D01*
X167640276Y-91532977D01*
X167641597Y-91548523D01*
X167643544Y-91559878D01*
X167646311Y-91568693D01*
X167650092Y-91576620D01*
X167654563Y-91584429D01*
X167674168Y-91607788D01*
X167699860Y-91623831D01*
X167729197Y-91631866D01*
X167759735Y-91631199D01*
X167787215Y-91622087D01*
X167804080Y-91612419D01*
X167817285Y-91601712D01*
X167827273Y-91588558D01*
X167834489Y-91571551D01*
X167839377Y-91549285D01*
X167842381Y-91520352D01*
X167843945Y-91483345D01*
X167843974Y-91481121D01*
X167844496Y-91440624D01*
X167845046Y-91332631D01*
X167827498Y-91330939D01*
X167809949Y-91329247D01*
X167809949Y-91435056D01*
X167809705Y-91477216D01*
X167808761Y-91510044D01*
X167806802Y-91535000D01*
X167803511Y-91553544D01*
X167798571Y-91567136D01*
X167791666Y-91577237D01*
X167782480Y-91585307D01*
X167776526Y-91589292D01*
X167753344Y-91598137D01*
X167729540Y-91597584D01*
X167707344Y-91588652D01*
X167688983Y-91572360D01*
X167676687Y-91549728D01*
X167674715Y-91542742D01*
X167673094Y-91530418D01*
X167671685Y-91509553D01*
X167670583Y-91482405D01*
X167669886Y-91451231D01*
X167669686Y-91425775D01*
X167669558Y-91329931D01*
X167652974Y-91329931D01*
X167636391Y-91329931D01*
X167394348Y-91329931D01*
X167329379Y-91329931D01*
X166746387Y-91329931D01*
X166730210Y-91329931D01*
X166714033Y-91329931D01*
X166712575Y-91444253D01*
X166711118Y-91558575D01*
X166636213Y-91445603D01*
X166612698Y-91410314D01*
X166594223Y-91383102D01*
X166579991Y-91362956D01*
X166569207Y-91348864D01*
X166561076Y-91339817D01*
X166554803Y-91334803D01*
X166549592Y-91332811D01*
X166547334Y-91332631D01*
X166533361Y-91332631D01*
X166532386Y-91456823D01*
X166532226Y-91494078D01*
X166412952Y-91494078D01*
X166412749Y-91471014D01*
X166412436Y-91435791D01*
X166412156Y-91404493D01*
X166411925Y-91379163D01*
X166411763Y-91361844D01*
X166411725Y-91357921D01*
X166411261Y-91341343D01*
X166409355Y-91333028D01*
X166404585Y-91330441D01*
X166396588Y-91330922D01*
X166381739Y-91332631D01*
X166380297Y-91475637D01*
X166380012Y-91514131D01*
X166379949Y-91549247D01*
X166206250Y-91549247D01*
X166206250Y-91497320D01*
X166206250Y-91362329D01*
X166249447Y-91362329D01*
X166292644Y-91362329D01*
X166292644Y-91346130D01*
X166292644Y-91329931D01*
X166190051Y-91329931D01*
X166087457Y-91329931D01*
X166087457Y-91346130D01*
X166087457Y-91362329D01*
X165997070Y-91362329D01*
X165985664Y-91350732D01*
X165977013Y-91346130D01*
X165965947Y-91340243D01*
X165939875Y-91333798D01*
X165905829Y-91330705D01*
X165880920Y-91330168D01*
X165822874Y-91329931D01*
X165401700Y-91329931D01*
X165386749Y-91329931D01*
X165381592Y-91330451D01*
X165376749Y-91332812D01*
X165371470Y-91338215D01*
X165365004Y-91347858D01*
X165356601Y-91362944D01*
X165345508Y-91384672D01*
X165330976Y-91414244D01*
X165320443Y-91435943D01*
X165269087Y-91541955D01*
X165216792Y-91435943D01*
X165199481Y-91401048D01*
X165186094Y-91374711D01*
X165175896Y-91355750D01*
X165168149Y-91342979D01*
X165162117Y-91335217D01*
X165157063Y-91331279D01*
X165152251Y-91329982D01*
X165150807Y-91329931D01*
X165137117Y-91329931D01*
X162415689Y-91329931D01*
X162415689Y-90249999D01*
X162415689Y-88870386D01*
X165134417Y-88870386D01*
X165134656Y-89172767D01*
X165134694Y-89216287D01*
X165134748Y-89269611D01*
X165134817Y-89331743D01*
X165134898Y-89401690D01*
X165134991Y-89478454D01*
X165135094Y-89561042D01*
X165135206Y-89648458D01*
X165135327Y-89739706D01*
X165135454Y-89833792D01*
X165135586Y-89929719D01*
X165135722Y-90026494D01*
X165135861Y-90123120D01*
X165136001Y-90218603D01*
X165136006Y-90221590D01*
X165137117Y-90968031D01*
X165354453Y-90969442D01*
X165401902Y-90969679D01*
X165445974Y-90969761D01*
X165485502Y-90969696D01*
X165519318Y-90969494D01*
X165546254Y-90969161D01*
X165565143Y-90968705D01*
X165574817Y-90968136D01*
X165575816Y-90967907D01*
X165576357Y-90962228D01*
X165576901Y-90946433D01*
X165577441Y-90921207D01*
X165577971Y-90887234D01*
X165578486Y-90845198D01*
X165578979Y-90795782D01*
X165579445Y-90739671D01*
X165579877Y-90677549D01*
X165580269Y-90610099D01*
X165580615Y-90538006D01*
X165580910Y-90461954D01*
X165581147Y-90382627D01*
X165581216Y-90354031D01*
X165582589Y-89743102D01*
X165647062Y-89854809D01*
X165686899Y-89923842D01*
X165722137Y-89984935D01*
X165753585Y-90039496D01*
X165782052Y-90088934D01*
X165808344Y-90134657D01*
X165833270Y-90178074D01*
X165857639Y-90220593D01*
X165882258Y-90263623D01*
X165907935Y-90308573D01*
X165935479Y-90356850D01*
X165965697Y-90409863D01*
X165991518Y-90455186D01*
X166019184Y-90503740D01*
X166045411Y-90549733D01*
X166069679Y-90592263D01*
X166091474Y-90630423D01*
X166110276Y-90663309D01*
X166125570Y-90690016D01*
X166136838Y-90709639D01*
X166143562Y-90721274D01*
X166145128Y-90723926D01*
X166147880Y-90727996D01*
X166151424Y-90731028D01*
X166157210Y-90733150D01*
X166166689Y-90734494D01*
X166181313Y-90735188D01*
X166202533Y-90735362D01*
X166231799Y-90735145D01*
X166266067Y-90734725D01*
X166379491Y-90733269D01*
X166569918Y-90393090D01*
X166602512Y-90334853D01*
X166634587Y-90277525D01*
X166665590Y-90222094D01*
X166694969Y-90169548D01*
X166722172Y-90120874D01*
X166746647Y-90077062D01*
X166767842Y-90039098D01*
X166785205Y-90007970D01*
X166798184Y-89984667D01*
X166803768Y-89974616D01*
X166832914Y-89922090D01*
X166863615Y-89866810D01*
X166895397Y-89809626D01*
X166927785Y-89751389D01*
X166960306Y-89692949D01*
X166992485Y-89635157D01*
X167023849Y-89578863D01*
X167053922Y-89524917D01*
X167082231Y-89474170D01*
X167108302Y-89427472D01*
X167131661Y-89385674D01*
X167151833Y-89349625D01*
X167168344Y-89320178D01*
X167180721Y-89298181D01*
X167188489Y-89284485D01*
X167189995Y-89281872D01*
X167211340Y-89245187D01*
X167646986Y-89247092D01*
X167729073Y-89247454D01*
X167801127Y-89247808D01*
X167863913Y-89248205D01*
X167918199Y-89248695D01*
X167964749Y-89249330D01*
X168004331Y-89250158D01*
X168037710Y-89251231D01*
X168065652Y-89252599D01*
X168088923Y-89254312D01*
X168108289Y-89256421D01*
X168124516Y-89258977D01*
X168138371Y-89262029D01*
X168150619Y-89265628D01*
X168162026Y-89269825D01*
X168173359Y-89274669D01*
X168185383Y-89280212D01*
X168191122Y-89282900D01*
X168232928Y-89307598D01*
X168265870Y-89338439D01*
X168289976Y-89375468D01*
X168305275Y-89418731D01*
X168311793Y-89468272D01*
X168312053Y-89480763D01*
X168307771Y-89531954D01*
X168294716Y-89576850D01*
X168272855Y-89615506D01*
X168242149Y-89647977D01*
X168202565Y-89674316D01*
X168176643Y-89686352D01*
X168160194Y-89692565D01*
X168143178Y-89697842D01*
X168124597Y-89702258D01*
X168103452Y-89705887D01*
X168078746Y-89708801D01*
X168049478Y-89711074D01*
X168014653Y-89712779D01*
X167973270Y-89713990D01*
X167924331Y-89714781D01*
X167866839Y-89715224D01*
X167799795Y-89715393D01*
X167781600Y-89715401D01*
X167523767Y-89715433D01*
X167523767Y-89901721D01*
X167523767Y-90088009D01*
X167809984Y-90088009D01*
X167881635Y-90088088D01*
X167943461Y-90088365D01*
X167996437Y-90088903D01*
X168041537Y-90089764D01*
X168079736Y-90091008D01*
X168112007Y-90092697D01*
X168139325Y-90094895D01*
X168162665Y-90097661D01*
X168182999Y-90101058D01*
X168201303Y-90105148D01*
X168218551Y-90109993D01*
X168233386Y-90114845D01*
X168279236Y-90135290D01*
X168316923Y-90162415D01*
X168346756Y-90196608D01*
X168369041Y-90238255D01*
X168384086Y-90287743D01*
X168388098Y-90309518D01*
X168390575Y-90357271D01*
X168384163Y-90406348D01*
X168369404Y-90452812D01*
X168367764Y-90456557D01*
X168345987Y-90492185D01*
X168315174Y-90523245D01*
X168276358Y-90549076D01*
X168230569Y-90569019D01*
X168178838Y-90582416D01*
X168167992Y-90584234D01*
X168153103Y-90585605D01*
X168127597Y-90586802D01*
X168091658Y-90587822D01*
X168045467Y-90588663D01*
X167989205Y-90589321D01*
X167923054Y-90589795D01*
X167847198Y-90590081D01*
X167761816Y-90590178D01*
X167761667Y-90590178D01*
X167394175Y-90590178D01*
X167394175Y-89982533D01*
X167394175Y-89374889D01*
X167336494Y-89376421D01*
X167278812Y-89377954D01*
X167264246Y-89402768D01*
X167255573Y-89417826D01*
X167242307Y-89441234D01*
X167225066Y-89471882D01*
X167204470Y-89508663D01*
X167181134Y-89550465D01*
X167155678Y-89596181D01*
X167128719Y-89644701D01*
X167100875Y-89694916D01*
X167072765Y-89745717D01*
X167045005Y-89795993D01*
X167029175Y-89824721D01*
X166945947Y-89975874D01*
X166947325Y-90473364D01*
X166948703Y-90970854D01*
X167580463Y-90970854D01*
X167677360Y-90970844D01*
X167764100Y-90970807D01*
X167841327Y-90970736D01*
X167909683Y-90970622D01*
X167969812Y-90970454D01*
X168022356Y-90970225D01*
X168067959Y-90969926D01*
X168107263Y-90969547D01*
X168140911Y-90969080D01*
X168169546Y-90968516D01*
X168193811Y-90967845D01*
X168214349Y-90967061D01*
X168231803Y-90966152D01*
X168246816Y-90965111D01*
X168260030Y-90963928D01*
X168272090Y-90962595D01*
X168283331Y-90961144D01*
X168378364Y-90944550D01*
X168464597Y-90921874D01*
X168542222Y-90893015D01*
X168611431Y-90857872D01*
X168672416Y-90816345D01*
X168725368Y-90768333D01*
X168770479Y-90713735D01*
X168779549Y-90700561D01*
X168809192Y-90651200D01*
X168831936Y-90601740D01*
X168848448Y-90549911D01*
X168859395Y-90493441D01*
X168865441Y-90430061D01*
X168866586Y-90403889D01*
X168866971Y-90348614D01*
X168863986Y-90300590D01*
X168857151Y-90256662D01*
X168845984Y-90213676D01*
X168831211Y-90171571D01*
X168803413Y-90113582D01*
X168766384Y-90057811D01*
X168721674Y-90005888D01*
X168670838Y-89959445D01*
X168615426Y-89920112D01*
X168567102Y-89894048D01*
X168551904Y-89886503D01*
X168541685Y-89880471D01*
X168538950Y-89877849D01*
X168543172Y-89873606D01*
X168554243Y-89865368D01*
X168569844Y-89854851D01*
X168571244Y-89853947D01*
X168615887Y-89820108D01*
X168658620Y-89778100D01*
X168697125Y-89730546D01*
X168729085Y-89680067D01*
X168735231Y-89668388D01*
X168760537Y-89606925D01*
X168777351Y-89540601D01*
X168785669Y-89471235D01*
X168785484Y-89400644D01*
X168776791Y-89330646D01*
X168759585Y-89263061D01*
X168736626Y-89205400D01*
X168700551Y-89142140D01*
X168655711Y-89084961D01*
X168602394Y-89034055D01*
X168540886Y-88989613D01*
X168471476Y-88951828D01*
X168394450Y-88920891D01*
X168310096Y-88896995D01*
X168259534Y-88886719D01*
X168240839Y-88883645D01*
X168221096Y-88880909D01*
X168199633Y-88878493D01*
X168175780Y-88876382D01*
X168148864Y-88874560D01*
X168118213Y-88873011D01*
X168083157Y-88871719D01*
X168043022Y-88870667D01*
X167997137Y-88869841D01*
X167944830Y-88869223D01*
X167885431Y-88868798D01*
X167818266Y-88868549D01*
X167742665Y-88868461D01*
X167657955Y-88868518D01*
X167563465Y-88868704D01*
X167510633Y-88868844D01*
X166971033Y-88870386D01*
X166879340Y-89032376D01*
X166862925Y-89061399D01*
X166841771Y-89098842D01*
X166816435Y-89143716D01*
X166787475Y-89195030D01*
X166755451Y-89251795D01*
X166720921Y-89313020D01*
X166684442Y-89377715D01*
X166646573Y-89444891D01*
X166607873Y-89513557D01*
X166568900Y-89582724D01*
X166533396Y-89645748D01*
X166496985Y-89710365D01*
X166461963Y-89772469D01*
X166428706Y-89831394D01*
X166397594Y-89886472D01*
X166369002Y-89937036D01*
X166343310Y-89982420D01*
X166320894Y-90021957D01*
X166302133Y-90054979D01*
X166287404Y-90080820D01*
X166277084Y-90098813D01*
X166271552Y-90108291D01*
X166270823Y-90109463D01*
X166267944Y-90113138D01*
X166264930Y-90114432D01*
X166261043Y-90112330D01*
X166255545Y-90105820D01*
X166247701Y-90093887D01*
X166236772Y-90075520D01*
X166222022Y-90049703D01*
X166203688Y-90017158D01*
X166189865Y-89992601D01*
X166171438Y-89959920D01*
X166149125Y-89920385D01*
X166123644Y-89875268D01*
X166095713Y-89825841D01*
X166066051Y-89773375D01*
X166035377Y-89719142D01*
X166004408Y-89664412D01*
X165985913Y-89631738D01*
X165953434Y-89574358D01*
X165919474Y-89514336D01*
X165884957Y-89453313D01*
X165850810Y-89392926D01*
X165817961Y-89334815D01*
X165787335Y-89280617D01*
X165759859Y-89231973D01*
X165736459Y-89190520D01*
X165729490Y-89178167D01*
X165705255Y-89135210D01*
X165680967Y-89092174D01*
X165657559Y-89050715D01*
X165635968Y-89012488D01*
X165617128Y-88979149D01*
X165601975Y-88952353D01*
X165593782Y-88937882D01*
X165555534Y-88870386D01*
X165344976Y-88870386D01*
X165134417Y-88870386D01*
X162415689Y-88870386D01*
X162415689Y-87749957D01*
X167000000Y-87749957D01*
X171584311Y-87749957D01*
X171584311Y-90249999D01*
G37*
%TO.C,Y2*%
D11*
X117040000Y-102310000D02*
X120460000Y-102310000D01*
X120460000Y-102310000D02*
X120460000Y-98190000D01*
%TO.C,U1*%
X135409584Y-92898695D02*
X136359584Y-92898695D01*
X135409584Y-93848695D02*
X135409584Y-92898695D01*
X135409584Y-103118695D02*
X135409584Y-102168695D01*
X136359584Y-103118695D02*
X135409584Y-103118695D01*
X144679584Y-92898695D02*
X145629584Y-92898695D01*
X145629584Y-92898695D02*
X145629584Y-93848695D01*
X145629584Y-102168695D02*
X145629584Y-103118695D01*
X145629584Y-103118695D02*
X144679584Y-103118695D01*
X134769584Y-93848695D02*
X134429584Y-93378695D01*
X135109584Y-93378695D01*
X134769584Y-93848695D01*
G36*
X134769584Y-93848695D02*
G01*
X134429584Y-93378695D01*
X135109584Y-93378695D01*
X134769584Y-93848695D01*
G37*
%TO.C,R7*%
X128846359Y-105870000D02*
X129153641Y-105870000D01*
X128846359Y-106630000D02*
X129153641Y-106630000D01*
%TO.C,C13*%
X121140000Y-98107836D02*
X121140000Y-97892164D01*
X121860000Y-98107836D02*
X121860000Y-97892164D01*
%TO.C,SW2*%
X122000000Y-113500000D02*
X122000000Y-113400000D01*
X122000000Y-115000000D02*
X126400000Y-115000000D01*
X126400000Y-111900000D02*
X122000000Y-111900000D01*
X126400000Y-113500000D02*
X126400000Y-113400000D01*
%TD*%
M02*
