M48
; DRILL file KiCad 10.0.4 date 2026-07-30T08:42:43
; FORMAT={-:-/ absolute / metric / decimal}
; #@! TF.CreationDate,2026-07-30T08:42:43+01:00
; #@! TF.GenerationSoftware,Kicad,Pcbnew,10.0.4
; #@! TF.FileFunction,MixedPlating,1,2
FMAT,2
METRIC
; #@! TA.AperFunction,Plated,PTH,ViaDrill
T1C0.200
; #@! TA.AperFunction,Plated,PTH,ViaDrill
T2C0.300
; #@! TA.AperFunction,Plated,PTH,ComponentDrill
T3C0.600
; #@! TA.AperFunction,Plated,PTH,ComponentDrill
T4C1.000
; #@! TA.AperFunction,Plated,PTH,ComponentDrill
T5C3.200
%
G90
G05
T1
X119.25Y-95.75
X120.75Y-108.0
X121.0Y-94.25
X127.0Y-110.75
X129.0Y-110.75
X131.0Y-105.75
X131.75Y-112.75
X136.25Y-99.75
X136.25Y-102.75
X159.25Y-109.5
X159.5Y-99.75
X159.5Y-102.0
X161.75Y-110.25
T2
X121.0Y-99.5
X122.5Y-97.5
X122.5Y-101.5
X130.75Y-101.75
X133.5Y-91.25
X135.75Y-106.0
X136.02Y-89.0
X138.0Y-94.0
X138.25Y-113.25
X138.27Y-88.75
X143.25Y-111.75
X143.5Y-113.25
X146.75Y-114.5
X148.75Y-107.5
X151.0Y-89.0
X151.0Y-111.25
X152.25Y-87.25
X161.25Y-101.0
X162.0Y-113.25
X162.5Y-106.5
X165.0Y-101.0
T4
X128.46Y-84.5
X131.0Y-84.5
X133.54Y-84.5
X136.08Y-84.5
X138.46Y-117.0
X141.0Y-117.0
X141.96Y-84.5
X143.54Y-117.0
X144.5Y-84.5
X146.08Y-117.0
X147.04Y-84.5
X149.58Y-84.5
X155.21Y-84.5
X157.75Y-84.5
X160.29Y-84.5
X162.83Y-84.5
X169.5Y-108.475
X169.5Y-111.015
T5
X116.898Y-117.387
X117.148Y-84.137
X169.898Y-84.137
X170.148Y-117.387
T3
G00X166.7Y-94.93
M15
G01X167.3Y-94.93
M16
G05
G00X166.7Y-103.57
M15
G01X167.3Y-103.57
M16
G05
G00X170.5Y-94.93
M15
G01X171.1Y-94.93
M16
G05
G00X170.5Y-103.57
M15
G01X171.1Y-103.57
M16
G05
M30
