%TF.GenerationSoftware,KiCad,Pcbnew,10.0.4*%
%TF.CreationDate,2026-07-26T10:26:41+01:00*%
%TF.ProjectId,tracking system,74726163-6b69-46e6-9720-73797374656d,rev?*%
%TF.SameCoordinates,Original*%
%TF.FileFunction,Paste,Top*%
%TF.FilePolarity,Positive*%
%FSLAX46Y46*%
G04 Gerber Fmt 4.6, Leading zero omitted, Abs format (unit mm)*
G04 Created by KiCad (PCBNEW 10.0.4) date 2026-07-26 10:26:41*
%MOMM*%
%LPD*%
G01*
G04 APERTURE LIST*
G04 Aperture macros list*
%AMRoundRect*
0 Rectangle with rounded corners*
0 $1 Rounding radius*
0 $2 $3 $4 $5 $6 $7 $8 $9 X,Y pos of 4 corners*
0 Add a 4 corners polygon primitive as box body*
4,1,4,$2,$3,$4,$5,$6,$7,$8,$9,$2,$3,0*
0 Add four circle primitives for the rounded corners*
1,1,$1+$1,$2,$3*
1,1,$1+$1,$4,$5*
1,1,$1+$1,$6,$7*
1,1,$1+$1,$8,$9*
0 Add four rect primitives between the rounded corners*
20,1,$1+$1,$2,$3,$4,$5,0*
20,1,$1+$1,$4,$5,$6,$7,0*
20,1,$1+$1,$6,$7,$8,$9,0*
20,1,$1+$1,$8,$9,$2,$3,0*%
G04 Aperture macros list end*
%ADD10RoundRect,0.075000X-0.075000X-0.700000X0.075000X-0.700000X0.075000X0.700000X-0.075000X0.700000X0*%
%ADD11RoundRect,0.075000X-0.700000X-0.075000X0.700000X-0.075000X0.700000X0.075000X-0.700000X0.075000X0*%
%ADD12RoundRect,0.135000X-0.185000X0.135000X-0.185000X-0.135000X0.185000X-0.135000X0.185000X0.135000X0*%
%ADD13RoundRect,0.218750X-0.256250X0.218750X-0.256250X-0.218750X0.256250X-0.218750X0.256250X0.218750X0*%
%ADD14RoundRect,0.140000X-0.140000X-0.170000X0.140000X-0.170000X0.140000X0.170000X-0.140000X0.170000X0*%
%ADD15RoundRect,0.230000X-0.230000X-0.375000X0.230000X-0.375000X0.230000X0.375000X-0.230000X0.375000X0*%
%ADD16RoundRect,0.150000X-0.825000X-0.150000X0.825000X-0.150000X0.825000X0.150000X-0.825000X0.150000X0*%
%ADD17RoundRect,0.140000X0.170000X-0.140000X0.170000X0.140000X-0.170000X0.140000X-0.170000X-0.140000X0*%
%ADD18RoundRect,0.140000X0.140000X0.170000X-0.140000X0.170000X-0.140000X-0.170000X0.140000X-0.170000X0*%
%ADD19RoundRect,0.150000X-0.512500X-0.150000X0.512500X-0.150000X0.512500X0.150000X-0.512500X0.150000X0*%
%ADD20RoundRect,0.200000X-0.250000X-0.200000X0.250000X-0.200000X0.250000X0.200000X-0.250000X0.200000X0*%
%ADD21RoundRect,0.135000X0.185000X-0.135000X0.185000X0.135000X-0.185000X0.135000X-0.185000X-0.135000X0*%
%ADD22RoundRect,0.218750X0.218750X0.256250X-0.218750X0.256250X-0.218750X-0.256250X0.218750X-0.256250X0*%
%ADD23RoundRect,0.140000X-0.170000X0.140000X-0.170000X-0.140000X0.170000X-0.140000X0.170000X0.140000X0*%
%ADD24R,0.900000X1.000000*%
%ADD25RoundRect,0.135000X0.135000X0.185000X-0.135000X0.185000X-0.135000X-0.185000X0.135000X-0.185000X0*%
%ADD26RoundRect,0.135000X-0.135000X-0.185000X0.135000X-0.185000X0.135000X0.185000X-0.135000X0.185000X0*%
%ADD27RoundRect,0.175000X0.425000X-0.175000X0.425000X0.175000X-0.425000X0.175000X-0.425000X-0.175000X0*%
%ADD28RoundRect,0.190000X-0.410000X0.190000X-0.410000X-0.190000X0.410000X-0.190000X0.410000X0.190000X0*%
%ADD29RoundRect,0.200000X-0.400000X0.200000X-0.400000X-0.200000X0.400000X-0.200000X0.400000X0.200000X0*%
%ADD30RoundRect,0.175000X-0.425000X0.175000X-0.425000X-0.175000X0.425000X-0.175000X0.425000X0.175000X0*%
%ADD31RoundRect,0.190000X0.410000X-0.190000X0.410000X0.190000X-0.410000X0.190000X-0.410000X-0.190000X0*%
%ADD32RoundRect,0.200000X0.400000X-0.200000X0.400000X0.200000X-0.400000X0.200000X-0.400000X-0.200000X0*%
%ADD33O,1.700000X1.100000*%
%ADD34RoundRect,0.200000X0.200000X-0.250000X0.200000X0.250000X-0.200000X0.250000X-0.200000X-0.250000X0*%
G04 APERTURE END LIST*
D10*
%TO.C,U1*%
X136769584Y-92333695D03*
X137269584Y-92333695D03*
X137769584Y-92333695D03*
X138269584Y-92333695D03*
X138769584Y-92333695D03*
X139269584Y-92333695D03*
X139769584Y-92333695D03*
X140269584Y-92333695D03*
X140769584Y-92333695D03*
X141269584Y-92333695D03*
X141769584Y-92333695D03*
X142269584Y-92333695D03*
X142769584Y-92333695D03*
X143269584Y-92333695D03*
X143769584Y-92333695D03*
X144269584Y-92333695D03*
D11*
X146194584Y-94258695D03*
X146194584Y-94758695D03*
X146194584Y-95258695D03*
X146194584Y-95758695D03*
X146194584Y-96258695D03*
X146194584Y-96758695D03*
X146194584Y-97258695D03*
X146194584Y-97758695D03*
X146194584Y-98258695D03*
X146194584Y-98758695D03*
X146194584Y-99258695D03*
X146194584Y-99758695D03*
X146194584Y-100258695D03*
X146194584Y-100758695D03*
X146194584Y-101258695D03*
X146194584Y-101758695D03*
D10*
X144269584Y-103683695D03*
X143769584Y-103683695D03*
X143269584Y-103683695D03*
X142769584Y-103683695D03*
X142269584Y-103683695D03*
X141769584Y-103683695D03*
X141269584Y-103683695D03*
X140769584Y-103683695D03*
X140269584Y-103683695D03*
X139769584Y-103683695D03*
X139269584Y-103683695D03*
X138769584Y-103683695D03*
X138269584Y-103683695D03*
X137769584Y-103683695D03*
X137269584Y-103683695D03*
X136769584Y-103683695D03*
D11*
X134844584Y-101758695D03*
X134844584Y-101258695D03*
X134844584Y-100758695D03*
X134844584Y-100258695D03*
X134844584Y-99758695D03*
X134844584Y-99258695D03*
X134844584Y-98758695D03*
X134844584Y-98258695D03*
X134844584Y-97758695D03*
X134844584Y-97258695D03*
X134844584Y-96758695D03*
X134844584Y-96258695D03*
X134844584Y-95758695D03*
X134844584Y-95258695D03*
X134844584Y-94758695D03*
X134844584Y-94258695D03*
%TD*%
D12*
%TO.C,R3*%
X163000000Y-97740000D03*
X163000000Y-98760000D03*
%TD*%
D13*
%TO.C,FB1*%
X132269584Y-105721195D03*
X132269584Y-107296195D03*
%TD*%
D14*
%TO.C,C5*%
X143789584Y-107758695D03*
X144749584Y-107758695D03*
%TD*%
D15*
%TO.C,U2*%
X154680000Y-101750000D03*
X154680000Y-103250000D03*
X155820000Y-101750000D03*
X155820000Y-103250000D03*
D16*
X152775000Y-100595000D03*
X152775000Y-101865000D03*
X152775000Y-103135000D03*
X152775000Y-104405000D03*
X157725000Y-104405000D03*
X157725000Y-103135000D03*
X157725000Y-101865000D03*
X157725000Y-100595000D03*
%TD*%
D17*
%TO.C,C6*%
X132519584Y-103738695D03*
X132519584Y-102778695D03*
%TD*%
D18*
%TO.C,C8*%
X138019584Y-109008695D03*
X137059584Y-109008695D03*
%TD*%
D19*
%TO.C,U3*%
X156975000Y-114250000D03*
X156975000Y-115200000D03*
X156975000Y-116150000D03*
X159250000Y-116150000D03*
X159250000Y-114250000D03*
%TD*%
D14*
%TO.C,C18*%
X156500000Y-112000000D03*
X157460000Y-112000000D03*
%TD*%
D20*
%TO.C,Y1*%
X118250000Y-94050000D03*
X119650000Y-94050000D03*
X119650000Y-92950000D03*
X118250000Y-92950000D03*
%TD*%
D12*
%TO.C,R4*%
X163000000Y-99990000D03*
X163000000Y-101010000D03*
%TD*%
D17*
%TO.C,C10*%
X132519584Y-92258695D03*
X132519584Y-91298695D03*
%TD*%
D21*
%TO.C,R6*%
X149750000Y-103260000D03*
X149750000Y-102240000D03*
%TD*%
D18*
%TO.C,C16*%
X151980000Y-107000000D03*
X151020000Y-107000000D03*
%TD*%
D22*
%TO.C,D1*%
X155537500Y-97250000D03*
X153962500Y-97250000D03*
%TD*%
D18*
%TO.C,C3*%
X136000000Y-89758695D03*
X135040000Y-89758695D03*
%TD*%
%TO.C,C4*%
X144749584Y-106008695D03*
X143789584Y-106008695D03*
%TD*%
D14*
%TO.C,C2*%
X137039584Y-106008695D03*
X137999584Y-106008695D03*
%TD*%
D23*
%TO.C,C12*%
X121500000Y-100520000D03*
X121500000Y-101480000D03*
%TD*%
D12*
%TO.C,R1*%
X123500000Y-98740000D03*
X123500000Y-99760000D03*
%TD*%
D24*
%TO.C,SW1*%
X122150000Y-106400000D03*
X126250000Y-106400000D03*
X122150000Y-108000000D03*
X126250000Y-108000000D03*
%TD*%
D23*
%TO.C,C15*%
X121750000Y-94270000D03*
X121750000Y-95230000D03*
%TD*%
%TO.C,C9*%
X132250000Y-98520000D03*
X132250000Y-99480000D03*
%TD*%
D17*
%TO.C,C14*%
X121750000Y-92480000D03*
X121750000Y-91520000D03*
%TD*%
D18*
%TO.C,C17*%
X158230000Y-107000000D03*
X157270000Y-107000000D03*
%TD*%
%TO.C,C19*%
X160210000Y-112000000D03*
X159250000Y-112000000D03*
%TD*%
D12*
%TO.C,R9*%
X160500000Y-103980000D03*
X160500000Y-105000000D03*
%TD*%
D25*
%TO.C,R5*%
X158510000Y-97250000D03*
X157490000Y-97250000D03*
%TD*%
D26*
%TO.C,R2*%
X137260416Y-89750000D03*
X138280416Y-89750000D03*
%TD*%
D23*
%TO.C,C1*%
X148519584Y-94028695D03*
X148519584Y-94988695D03*
%TD*%
D17*
%TO.C,C11*%
X130750000Y-92230000D03*
X130750000Y-91270000D03*
%TD*%
D26*
%TO.C,R8*%
X128450000Y-112700000D03*
X129470000Y-112700000D03*
%TD*%
D27*
%TO.C,J2*%
X166920000Y-99750000D03*
D28*
X166920000Y-97730000D03*
D29*
X166920000Y-96500000D03*
D30*
X166920000Y-98750000D03*
D31*
X166920000Y-100770000D03*
D32*
X166920000Y-102000000D03*
D33*
X167000000Y-103570000D03*
X170800000Y-103570000D03*
X167000000Y-94930000D03*
X170800000Y-94930000D03*
%TD*%
D17*
%TO.C,C7*%
X130750000Y-103738695D03*
X130750000Y-102778695D03*
%TD*%
D34*
%TO.C,Y2*%
X119300000Y-100950000D03*
X119300000Y-99550000D03*
X118200000Y-99550000D03*
X118200000Y-100950000D03*
%TD*%
D26*
%TO.C,R7*%
X128490000Y-106250000D03*
X129510000Y-106250000D03*
%TD*%
D17*
%TO.C,C13*%
X121500000Y-98480000D03*
X121500000Y-97520000D03*
%TD*%
D24*
%TO.C,SW2*%
X122150000Y-112650000D03*
X126250000Y-112650000D03*
X122150000Y-114250000D03*
X126250000Y-114250000D03*
%TD*%
M02*
